<?xml version="1.0" standalone="no"?>
<!DOCTYPE svg PUBLIC "-//W3C//DTD SVG 20010904//EN"
 "http://www.w3.org/TR/2001/REC-SVG-20010904/DTD/svg10.dtd">
<svg version="1.0" xmlns="http://www.w3.org/2000/svg"
 width="1351.000000pt" height="740.000000pt" viewBox="0 0 1351.000000 740.000000"
 preserveAspectRatio="xMidYMid meet">
<metadata>
Created by potrace 1.15, written by Peter Selinger 2001-2017
</metadata>
<g transform="translate(0.000000,740.000000) scale(0.100000,-0.100000)"
fill="#FFFFFF" stroke="none">
<path d="M6516 7208 c-148 -4 -272 -11 -275 -16 -3 -5 -93 -17 -198 -27 -106
-10 -193 -21 -193 -25 0 -4 -42 -13 -92 -19 -51 -7 -95 -16 -98 -20 -3 -4 -48
-16 -100 -26 -52 -10 -97 -21 -100 -25 -3 -4 -44 -15 -92 -25 -49 -10 -88 -22
-88 -26 0 -4 -18 -10 -40 -14 -22 -4 -46 -12 -53 -19 -7 -7 -46 -21 -87 -31
-41 -10 -80 -24 -87 -30 -6 -7 -39 -18 -72 -25 -34 -7 -61 -17 -61 -21 0 -5
-20 -14 -45 -20 -25 -6 -45 -14 -45 -18 0 -4 -25 -15 -55 -26 -30 -10 -55 -21
-55 -24 0 -3 -27 -15 -60 -25 -33 -11 -60 -23 -60 -27 0 -4 -16 -13 -35 -19
-19 -6 -35 -15 -35 -19 0 -4 -18 -14 -40 -21 -23 -8 -44 -18 -48 -24 -4 -6
-26 -20 -49 -31 -24 -11 -43 -23 -43 -26 0 -3 -18 -12 -40 -19 -22 -7 -40 -17
-40 -21 0 -5 -15 -16 -32 -25 -18 -9 -35 -20 -38 -23 -3 -3 -22 -14 -42 -23
-21 -10 -38 -22 -38 -28 0 -5 -7 -10 -15 -10 -8 0 -24 -9 -36 -21 -11 -11 -36
-27 -55 -35 -19 -8 -34 -18 -34 -24 0 -5 -17 -17 -37 -27 -21 -9 -44 -25 -51
-35 -7 -10 -17 -18 -22 -18 -5 0 -20 -10 -33 -22 -13 -13 -38 -34 -57 -48 -18
-14 -48 -40 -67 -58 -19 -18 -45 -39 -56 -47 -33 -22 -100 -82 -183 -162 -40
-40 -78 -73 -84 -73 -5 0 -10 -6 -10 -13 0 -14 -56 -67 -71 -67 -5 0 -9 -4 -9
-8 0 -10 -38 -55 -117 -139 -29 -30 -53 -59 -53 -64 0 -10 -21 -35 -62 -76
-16 -14 -28 -30 -28 -35 0 -4 -8 -17 -17 -27 -10 -11 -27 -32 -38 -47 -11 -14
-27 -34 -35 -43 -8 -9 -24 -33 -35 -54 -11 -20 -23 -37 -27 -37 -4 0 -15 -17
-24 -37 -10 -21 -24 -42 -31 -46 -7 -4 -13 -15 -13 -23 0 -8 -6 -17 -14 -20
-7 -3 -22 -24 -32 -47 -10 -23 -21 -44 -25 -47 -3 -3 -14 -23 -25 -45 -10 -22
-24 -46 -31 -53 -7 -7 -13 -20 -13 -27 0 -7 -6 -20 -13 -27 -7 -7 -22 -34 -32
-61 -10 -26 -21 -47 -26 -47 -4 0 -10 -14 -14 -30 -4 -17 -15 -39 -25 -48 -10
-9 -23 -36 -29 -59 -7 -24 -15 -43 -20 -43 -4 0 -16 -26 -27 -57 -10 -32 -24
-64 -31 -71 -7 -7 -15 -28 -19 -47 -3 -19 -10 -35 -14 -35 -4 0 -16 -30 -26
-67 -10 -38 -22 -71 -26 -74 -5 -3 -16 -34 -25 -70 -9 -35 -19 -66 -23 -69 -4
-3 -13 -30 -19 -60 -6 -30 -16 -57 -21 -60 -6 -3 -13 -28 -16 -56 -7 -64 -23
-104 -40 -104 -8 0 -14 4 -14 9 0 13 -127 33 -181 29 -43 -3 -44 -4 -47 -39
-2 -23 3 -42 12 -52 9 -9 16 -18 16 -21 0 -10 68 -76 78 -76 6 0 16 -9 22 -20
6 -11 17 -20 25 -20 8 0 26 -12 42 -26 20 -19 24 -27 14 -33 -8 -5 -18 -63
-28 -162 -9 -85 -19 -156 -24 -159 -4 -3 -11 -113 -15 -244 l-7 -238 329 5
c181 4 330 6 332 7 1 0 2 9 2 20 0 11 4 20 9 20 5 0 15 16 21 35 6 19 15 35
20 35 5 0 14 25 21 56 7 31 18 61 24 68 6 6 20 32 30 59 10 26 21 47 25 47 4
0 11 16 14 35 4 19 12 40 19 47 7 7 21 33 30 57 10 24 24 49 31 57 8 7 16 19
18 26 3 9 20 9 76 -1 40 -7 72 -17 72 -22 0 -5 6 -9 13 -9 16 -1 51 -31 66
-57 19 -36 14 -110 -9 -133 -27 -27 -40 -25 -40 4 0 14 -7 31 -15 40 -8 8 -15
19 -15 25 0 15 -44 24 -72 16 -39 -12 -70 -56 -64 -88 6 -29 41 -66 64 -67 6
0 12 -4 12 -10 0 -5 14 -10 30 -10 17 0 30 5 30 10 0 6 9 10 19 10 23 0 81 55
81 76 0 8 5 14 10 14 6 0 10 25 10 55 0 30 -4 55 -9 55 -5 0 -11 10 -13 21 -2
12 -12 27 -22 33 -11 6 -27 18 -37 27 -9 9 -36 20 -60 24 -24 4 -46 10 -49 14
-11 14 -52 31 -60 26 -22 -13 -50 6 -50 34 0 47 -21 94 -56 128 -19 18 -34 39
-34 45 0 14 -34 19 -125 17 -124 -2 -124 -2 -131 -31 -3 -16 -9 -28 -12 -28
-4 0 -13 -13 -20 -30 -13 -27 -42 -42 -42 -21 0 5 -20 12 -45 15 -25 4 -50 14
-57 21 -36 40 -41 50 -41 87 0 22 4 43 10 47 5 3 17 42 27 86 10 43 24 84 30
91 7 6 18 37 26 68 7 31 17 56 21 56 4 0 13 23 20 50 7 28 15 50 19 50 3 0 12
21 19 46 8 26 22 54 33 63 10 9 18 29 18 48 0 17 6 36 13 40 6 4 20 24 29 43
10 21 17 28 17 18 1 -10 5 -18 9 -18 4 0 14 -21 21 -46 8 -25 21 -48 30 -52
24 -9 101 -90 101 -106 0 -7 -6 -16 -13 -19 -7 -3 -19 -23 -27 -46 -7 -23 -17
-41 -21 -41 -4 0 -13 -16 -19 -35 -6 -19 -15 -35 -19 -35 -4 0 -14 -19 -21
-41 -8 -23 -19 -47 -25 -53 -12 -13 -45 -107 -45 -129 0 -8 -4 -17 -10 -19 -5
-1 -11 -16 -13 -33 -3 -16 -2 -24 0 -17 2 6 9 12 14 12 5 0 9 9 9 19 0 11 4
22 9 25 5 3 12 22 15 41 4 19 10 35 15 35 4 0 16 27 26 60 10 33 22 60 26 60
5 0 14 18 20 40 7 22 15 40 19 40 3 0 14 18 24 40 10 22 22 40 27 40 5 0 9 6
9 14 0 46 43 25 133 -64 65 -65 81 -95 54 -106 -7 -2 -22 -25 -32 -49 -11 -25
-23 -45 -28 -45 -4 0 -14 -18 -23 -40 -9 -22 -20 -40 -24 -40 -8 0 -33 -60
-28 -66 8 -7 36 26 48 56 7 19 18 40 24 45 6 6 19 27 28 48 10 20 22 37 27 37
5 0 14 14 20 30 6 20 17 30 30 30 28 0 51 -10 51 -23 0 -12 59 -71 80 -79 9
-3 22 -18 30 -32 12 -24 12 -30 -5 -59 -10 -18 -27 -38 -37 -45 -10 -7 -18
-20 -18 -28 0 -8 -7 -17 -15 -20 -8 -4 -15 -12 -15 -20 0 -7 -8 -19 -18 -26
-10 -7 -26 -31 -36 -53 -11 -22 -22 -42 -25 -45 -4 -3 -12 -18 -19 -35 l-13
-30 31 35 c16 19 33 43 36 53 3 9 9 17 14 17 5 0 11 8 15 19 5 17 19 35 70 94
9 10 23 33 32 52 9 19 22 36 29 39 21 8 53 -5 59 -25 4 -10 10 -19 15 -19 5 0
15 -3 24 -6 28 -11 18 17 -19 53 -19 19 -35 38 -35 43 0 6 16 27 35 47 19 20
37 44 40 53 3 8 18 24 34 35 17 11 36 31 43 45 13 26 114 130 126 130 10 0 72
66 72 76 0 6 14 18 31 28 18 10 40 26 49 35 10 9 32 27 48 41 71 58 116 97
150 128 20 17 39 32 43 32 3 0 18 11 33 25 15 14 31 25 37 25 5 0 19 9 32 20
51 46 60 52 93 66 19 8 34 19 34 25 0 5 14 15 30 20 17 6 30 15 30 19 0 4 18
15 40 24 22 9 40 19 40 23 0 5 20 17 45 28 25 11 45 23 45 27 0 5 6 8 13 8 7
0 22 8 33 18 11 10 42 27 69 37 28 11 58 27 69 37 10 9 32 20 47 23 16 4 29
11 29 15 0 5 18 15 40 21 22 7 40 15 40 19 0 3 26 14 58 25 31 11 59 22 62 25
3 3 25 12 49 20 24 8 49 19 55 25 6 7 35 18 64 24 28 7 52 17 52 21 0 4 12 10
28 13 69 14 122 29 122 36 0 4 41 15 90 25 50 11 90 22 90 26 0 4 33 13 73 20
39 7 74 16 77 20 5 8 178 40 216 40 12 0 24 4 26 10 4 12 184 40 261 40 31 0
57 4 57 8 0 14 254 32 452 32 140 0 188 3 191 13 4 8 8 9 14 1 8 -11 64 -15
431 -31 78 -3 142 -9 142 -13 0 -4 28 -10 63 -14 98 -11 187 -29 187 -38 0 -4
14 -8 32 -8 46 0 208 -33 208 -42 0 -4 10 -8 22 -8 31 0 142 -23 148 -31 3 -3
40 -14 83 -23 42 -10 77 -21 77 -25 0 -4 36 -16 80 -26 44 -10 80 -22 80 -26
0 -4 10 -9 23 -11 19 -3 22 -9 23 -48 1 -67 1 -67 36 -102 31 -32 34 -33 116
-32 46 0 87 4 90 10 10 13 49 34 66 34 8 0 16 15 20 39 3 22 12 46 19 53 7 7
22 37 32 66 10 28 22 52 25 52 4 0 15 27 25 60 10 33 22 60 27 60 4 0 8 6 8
14 0 8 6 16 14 19 15 6 76 -13 76 -24 0 -3 19 -14 43 -25 23 -10 51 -27 61
-36 11 -10 26 -18 33 -18 7 0 13 -5 13 -10 0 -6 18 -17 40 -26 22 -9 40 -20
40 -24 0 -4 16 -15 35 -24 19 -9 35 -21 35 -25 0 -5 15 -14 33 -22 17 -7 36
-19 40 -26 4 -7 14 -13 22 -13 8 0 20 -8 27 -17 13 -17 38 -36 66 -49 7 -4 28
-21 46 -38 58 -53 88 -76 120 -93 17 -9 36 -23 42 -32 22 -31 85 -91 107 -102
12 -7 40 -32 61 -56 22 -23 46 -43 53 -43 8 0 17 -8 20 -17 4 -10 33 -44 65
-76 32 -32 58 -62 58 -67 0 -5 14 -16 30 -25 17 -9 30 -22 30 -29 0 -8 14 -27
30 -43 16 -15 30 -34 30 -40 0 -7 5 -13 11 -13 6 0 -8 -17 -30 -38 -30 -28
-41 -46 -41 -68 0 -35 20 -84 35 -84 6 0 23 -11 38 -24 28 -24 47 -29 160 -41
40 -5 57 -11 57 -21 0 -8 3 -14 8 -14 4 0 16 -20 27 -45 11 -25 22 -45 25 -45
3 0 14 -17 25 -37 11 -21 26 -44 32 -51 7 -7 13 -20 13 -27 0 -7 6 -20 13 -27
19 -22 37 -56 37 -73 0 -9 7 -18 15 -21 8 -4 15 -11 15 -17 0 -16 33 -87 41
-87 4 0 13 -20 20 -45 7 -25 16 -45 20 -45 3 0 14 -26 24 -57 10 -32 21 -60
25 -63 4 -3 15 -29 24 -57 10 -29 21 -53 26 -53 4 0 13 -30 20 -67 7 -38 16
-70 19 -73 14 -10 41 -114 33 -122 -5 -5 -37 -8 -72 -6 l-63 3 -15 43 c-7 23
-17 42 -21 42 -4 0 -14 19 -21 43 -8 23 -17 44 -20 47 -10 10 -40 72 -40 85 0
7 -6 15 -13 18 -7 3 -19 23 -25 45 -7 22 -18 42 -26 45 -7 3 -16 21 -20 40 -4
19 -13 38 -21 41 -8 3 -15 11 -15 19 0 7 -8 22 -17 33 -24 27 -42 55 -49 77
-4 9 -10 17 -15 17 -5 0 -14 11 -19 25 -5 14 -14 25 -19 25 -5 0 -12 10 -15
23 -7 25 -39 68 -78 106 -16 14 -28 31 -28 38 0 7 -9 17 -20 23 -11 6 -20 16
-20 23 0 13 -29 48 -111 134 -27 29 -49 57 -49 62 0 6 -7 11 -15 11 -9 0 -18
7 -22 16 -8 21 -46 59 -67 67 -9 4 -21 17 -27 31 -6 13 -20 27 -30 29 -11 3
-19 12 -19 19 0 8 -11 20 -25 26 -14 6 -25 16 -25 21 0 5 -13 14 -29 20 -15 7
-33 23 -39 37 -7 13 -17 24 -24 24 -7 0 -21 13 -32 28 -10 16 -30 34 -45 40
-27 12 -69 44 -125 97 -18 17 -49 38 -69 47 -21 10 -37 21 -37 26 0 5 -15 16
-34 25 -19 9 -44 24 -56 34 -12 10 -30 25 -40 34 -11 8 -37 21 -59 29 -23 7
-41 17 -41 22 0 4 -18 15 -40 24 -22 9 -40 20 -40 24 0 4 -13 13 -30 19 -16 5
-30 14 -30 20 0 5 -22 17 -50 26 -27 9 -50 20 -50 24 0 4 -22 15 -50 25 -27
10 -50 22 -50 26 0 4 -18 12 -40 18 -22 5 -37 6 -34 1 3 -5 12 -9 20 -9 8 0
14 -4 14 -9 0 -4 20 -16 45 -25 25 -10 45 -22 45 -27 0 -5 6 -9 14 -9 17 0 80
-32 84 -42 2 -5 9 -8 16 -8 7 0 21 -8 32 -18 10 -10 35 -24 54 -32 19 -7 43
-21 52 -31 9 -9 33 -22 52 -29 19 -6 37 -17 40 -25 3 -8 12 -15 20 -15 8 0 19
-6 23 -13 4 -7 25 -21 46 -31 20 -9 37 -20 37 -24 0 -4 12 -13 28 -19 32 -15
77 -49 105 -80 12 -13 27 -23 34 -23 8 0 16 -7 19 -15 4 -8 12 -15 19 -15 8 0
22 -11 32 -23 10 -13 29 -29 41 -36 27 -14 42 -27 109 -92 27 -25 56 -48 66
-52 9 -3 17 -13 17 -22 0 -8 5 -15 11 -15 14 0 219 -205 219 -219 0 -6 6 -11
13 -11 8 0 19 -11 25 -25 7 -14 19 -28 27 -31 8 -4 15 -12 15 -20 0 -7 8 -19
18 -26 9 -7 25 -26 35 -41 10 -16 26 -37 35 -47 9 -11 28 -33 42 -50 14 -16
32 -38 41 -48 8 -9 21 -31 28 -49 7 -17 19 -34 27 -37 8 -3 14 -12 14 -19 0
-8 11 -26 25 -41 14 -15 28 -38 31 -51 3 -14 10 -25 15 -25 5 0 15 -16 23 -35
8 -19 19 -35 24 -35 5 0 15 -18 22 -40 7 -22 16 -40 20 -40 4 0 13 -18 20 -41
8 -23 20 -43 27 -46 7 -3 18 -24 25 -47 6 -22 16 -45 22 -51 7 -5 18 -29 25
-52 8 -24 17 -43 21 -43 3 0 14 -22 24 -50 l18 -49 311 -3 c267 -3 314 -1 326
12 10 12 12 42 8 135 -8 164 -29 399 -38 405 -3 3 -12 52 -19 110 -7 58 -16
107 -19 110 -4 3 -14 52 -24 110 -9 57 -21 106 -25 110 -4 3 -16 46 -26 95
-10 50 -22 92 -26 95 -4 3 -13 30 -21 60 -7 30 -16 57 -20 60 -4 3 -15 34 -24
70 -9 36 -20 67 -24 70 -3 3 -15 31 -24 63 -10 31 -22 57 -27 57 -5 0 -14 25
-21 55 -7 30 -16 55 -20 55 -4 0 -15 22 -25 50 -10 28 -21 50 -25 50 -4 0 -15
23 -25 50 -10 28 -21 50 -25 50 -4 0 -13 20 -20 45 -7 25 -17 45 -21 45 -5 0
-15 18 -24 40 -9 22 -20 40 -24 40 -5 0 -14 16 -20 35 -6 19 -15 35 -18 35 -4
0 -15 20 -25 45 -11 25 -23 45 -28 45 -5 0 -16 18 -25 40 -9 22 -20 40 -24 40
-4 0 -13 14 -20 30 -7 17 -16 30 -21 30 -5 0 -17 17 -27 37 -9 20 -26 46 -37
58 -11 12 -29 34 -40 49 -11 15 -27 34 -36 44 -9 9 -22 27 -28 40 -15 28 -38
58 -68 87 -13 12 -23 26 -23 30 0 4 -18 25 -40 46 -22 22 -40 42 -40 45 0 3
-27 33 -60 66 -33 34 -60 65 -60 70 0 13 -42 47 -57 48 -7 0 -13 6 -13 14 0
14 -97 116 -111 116 -5 0 -38 28 -74 63 -99 96 -196 177 -210 177 -6 0 -16 9
-23 20 -7 11 -19 20 -27 20 -8 0 -19 9 -25 20 -6 11 -17 20 -26 20 -8 0 -17 6
-20 14 -3 8 -13 17 -22 20 -26 8 -55 29 -70 49 -7 9 -19 17 -26 17 -12 0 -43
21 -75 50 -9 9 -33 24 -54 33 -20 10 -37 21 -37 25 0 4 -20 15 -45 25 -25 11
-45 23 -45 28 0 5 -7 9 -15 9 -8 0 -23 8 -33 18 -10 10 -40 26 -67 36 -27 11
-58 27 -69 37 -10 10 -32 21 -47 24 -16 4 -29 11 -29 15 0 5 -19 15 -42 22
-24 7 -51 21 -60 30 -10 10 -24 18 -32 18 -8 0 -21 6 -28 13 -7 6 -37 20 -67
31 -30 10 -60 24 -68 31 -7 7 -31 16 -53 20 -22 4 -40 10 -40 15 0 4 -29 16
-65 25 -36 10 -65 21 -65 25 0 4 -17 11 -37 15 -56 10 -113 29 -113 37 0 4
-27 12 -60 19 -33 6 -60 15 -60 19 0 5 -35 16 -77 26 -43 10 -80 22 -84 26 -3
4 -52 15 -110 25 -57 9 -106 20 -109 24 -3 3 -43 12 -89 18 -47 6 -87 15 -90
20 -3 5 -28 11 -56 13 -243 23 -321 33 -326 40 -3 4 -90 11 -195 13 -104 3
-202 7 -219 8 -16 2 -151 -1 -299 -5z m154 -18 c0 -6 32 -10 75 -10 43 0 75 4
75 10 0 6 11 10 25 10 14 0 25 -4 25 -8 0 -5 66 -12 148 -15 193 -8 432 -29
432 -38 0 -3 53 -12 118 -19 64 -7 119 -16 122 -19 3 -4 52 -16 110 -26 58
-10 107 -22 110 -25 3 -4 45 -14 95 -24 49 -9 92 -21 95 -25 3 -5 31 -14 63
-21 31 -6 57 -15 57 -18 0 -4 32 -16 70 -26 39 -10 70 -21 70 -25 0 -4 34 -15
75 -26 41 -10 75 -22 75 -25 0 -4 21 -13 46 -19 26 -7 52 -18 60 -26 7 -7 32
-16 54 -20 22 -4 43 -12 47 -19 5 -7 34 -21 66 -31 31 -10 57 -21 57 -26 0 -4
16 -13 35 -19 19 -6 35 -15 35 -19 0 -4 24 -16 52 -26 29 -10 62 -27 72 -37
11 -10 25 -18 32 -18 7 0 19 -6 26 -13 7 -7 28 -20 46 -28 17 -7 32 -17 32
-20 0 -3 19 -14 43 -25 23 -10 44 -21 47 -25 3 -3 20 -14 38 -23 17 -9 32 -20
32 -24 0 -5 16 -14 35 -22 19 -8 35 -17 35 -22 0 -4 16 -14 35 -22 19 -8 35
-19 35 -24 0 -5 18 -17 39 -27 22 -10 42 -24 45 -31 3 -8 12 -14 20 -14 9 0
20 -9 26 -20 6 -11 16 -20 23 -20 13 0 68 -42 103 -77 11 -13 26 -23 32 -23 6
0 16 -9 22 -20 6 -11 16 -20 22 -20 11 0 58 -41 101 -87 11 -13 24 -23 27 -23
11 0 120 -109 120 -120 0 -5 4 -10 9 -10 11 0 151 -139 151 -151 0 -5 20 -28
45 -51 25 -23 45 -46 45 -49 0 -7 57 -72 104 -119 14 -14 26 -31 26 -37 0 -7
6 -16 13 -20 7 -4 21 -21 32 -38 10 -16 23 -35 29 -41 27 -28 46 -55 61 -84 8
-16 19 -30 23 -30 4 0 16 -17 27 -37 11 -21 25 -42 32 -46 7 -4 13 -14 13 -22
0 -8 8 -19 18 -24 10 -5 24 -28 32 -50 7 -23 16 -41 19 -41 3 0 15 -19 26 -43
11 -23 25 -45 32 -50 7 -4 15 -23 19 -42 3 -19 10 -35 16 -35 5 0 16 -16 24
-35 8 -19 18 -35 23 -35 5 0 14 -20 20 -45 6 -25 15 -45 19 -45 5 0 16 -23 26
-50 10 -28 21 -50 25 -50 4 0 15 -27 25 -60 10 -33 22 -60 27 -60 5 0 14 -20
20 -45 6 -25 15 -45 19 -45 4 0 16 -30 26 -67 10 -38 21 -70 24 -73 4 -3 15
-35 25 -72 10 -38 21 -68 25 -68 3 0 12 -30 20 -67 7 -38 17 -71 22 -74 6 -4
17 -46 25 -95 8 -49 19 -91 23 -94 4 -3 15 -58 25 -122 10 -65 21 -118 25
-118 4 0 12 -64 20 -142 7 -79 16 -145 20 -148 4 -3 11 -74 15 -158 l7 -153
-68 3 -69 3 -9 90 c-5 50 -12 92 -16 95 -4 3 -13 52 -20 110 -6 58 -15 107
-19 110 -7 4 -18 63 -36 188 -4 23 -10 42 -14 42 -4 0 -16 39 -26 88 -10 48
-22 89 -27 93 -4 3 -12 27 -17 53 -5 27 -13 51 -19 55 -5 3 -12 17 -16 31 -17
65 -31 105 -36 110 -3 3 -14 31 -25 63 -11 31 -22 57 -26 57 -3 0 -12 21 -19
48 -8 26 -17 49 -20 52 -4 3 -13 18 -21 34 -8 16 -21 31 -29 34 -11 2 -12 1
-3 -5 7 -5 20 -33 28 -61 9 -29 19 -52 23 -52 4 0 13 -20 20 -45 7 -25 16 -45
22 -45 5 0 10 -8 10 -17 0 -21 32 -116 41 -123 4 -3 15 -34 25 -70 9 -36 20
-67 24 -70 4 -3 12 -32 18 -64 7 -33 16 -62 20 -65 4 -3 16 -46 26 -96 10 -49
22 -92 26 -95 5 -3 16 -61 26 -130 10 -69 21 -127 24 -130 4 -3 12 -61 19
-130 7 -71 18 -128 24 -132 9 -6 8 -11 -3 -18 -18 -12 -120 -13 -137 -2 -7 4
-18 44 -24 87 -6 44 -14 82 -18 85 -4 3 -15 49 -26 103 -10 53 -21 97 -25 97
-4 0 -15 37 -25 83 -10 45 -22 84 -25 87 -4 3 -13 29 -20 58 -6 28 -15 52 -19
52 -4 0 -16 29 -26 65 -11 36 -22 65 -25 65 -3 0 -12 17 -19 38 -8 20 -17 39
-20 42 -4 3 -15 31 -24 63 -10 31 -22 57 -26 57 -5 0 -16 23 -25 51 -10 28
-26 60 -37 72 -10 11 -19 27 -19 34 0 7 -4 13 -8 13 -5 0 -15 18 -22 40 -10
32 -11 42 0 55 7 8 17 15 22 15 5 0 24 16 42 35 19 19 37 35 42 35 5 0 16 9
24 20 8 11 25 20 37 20 15 0 23 6 23 18 0 10 14 26 30 36 17 9 41 27 54 39 12
12 37 33 54 47 18 14 32 30 32 37 0 20 -30 15 -54 -7 -64 -62 -110 -100 -118
-100 -16 0 -37 26 -54 69 -9 23 -20 41 -24 41 -4 0 -16 23 -26 50 -10 28 -22
50 -26 50 -5 0 -14 14 -19 30 -6 17 -15 30 -20 30 -5 0 -16 18 -25 40 -9 22
-19 40 -23 40 -5 0 -13 10 -18 23 -11 22 -36 56 -63 86 -9 9 -24 33 -33 54
-10 20 -22 37 -28 37 -5 0 -17 16 -27 37 -9 20 -32 52 -50 72 -18 20 -44 48
-57 63 -14 15 -25 30 -25 34 0 4 -9 16 -20 28 -11 12 -53 57 -95 100 -41 44
-77 87 -80 98 -4 10 -11 18 -16 18 -13 0 -39 26 -39 38 0 5 -9 12 -20 15 -11
3 -20 12 -20 21 0 9 -7 16 -15 16 -9 0 -21 11 -27 25 -6 13 -19 27 -29 30 -10
3 -40 28 -66 55 -26 27 -54 50 -60 50 -7 0 -13 7 -13 15 0 9 -11 20 -25 25
-14 5 -28 17 -31 25 -4 8 -12 15 -20 15 -7 0 -20 11 -29 23 -8 13 -27 30 -43
38 -15 8 -33 22 -40 32 -7 9 -19 17 -27 17 -8 0 -19 9 -25 20 -6 11 -17 20
-25 20 -8 0 -19 9 -25 20 -6 11 -17 20 -25 20 -8 0 -20 8 -27 18 -7 9 -32 26
-55 36 -24 11 -43 23 -43 28 0 4 -6 8 -14 8 -8 0 -21 8 -28 18 -7 11 -30 24
-50 31 -21 7 -41 18 -45 24 -5 7 -25 20 -45 29 -21 10 -38 22 -38 28 0 5 -7
10 -15 10 -8 0 -23 8 -34 19 -10 10 -40 27 -67 37 -27 10 -51 21 -54 25 -3 4
-25 15 -50 25 -25 10 -51 24 -58 31 -7 7 -28 15 -47 19 -19 3 -35 10 -35 14 0
4 -21 15 -47 25 -27 10 -54 24 -60 31 -7 7 -38 18 -68 25 -30 7 -55 16 -55 20
0 5 -19 14 -42 21 -24 7 -48 17 -55 24 -6 6 -39 16 -72 23 -34 7 -61 16 -61
21 0 4 -15 11 -32 15 -58 11 -118 29 -118 36 0 3 -31 11 -70 18 -38 7 -70 17
-70 22 0 5 -8 9 -17 9 -27 0 -167 33 -173 41 -3 4 -27 9 -55 12 -93 8 -230 30
-235 37 -5 7 -195 30 -247 30 -17 0 -33 4 -35 9 -5 14 -391 32 -573 27 -286
-9 -475 -19 -475 -26 0 -4 -60 -13 -132 -19 -73 -7 -135 -16 -138 -21 -3 -4
-65 -14 -139 -23 -74 -9 -137 -20 -140 -26 -5 -8 -61 -22 -156 -38 -16 -3 -32
-9 -35 -12 -3 -4 -34 -13 -70 -20 -36 -7 -67 -16 -70 -20 -3 -4 -42 -16 -87
-26 -46 -10 -83 -21 -83 -25 0 -4 -31 -16 -70 -26 -38 -10 -70 -21 -70 -25 0
-4 -22 -13 -50 -20 -27 -7 -50 -16 -50 -19 0 -3 -29 -14 -65 -25 -36 -10 -65
-22 -65 -26 0 -4 -20 -14 -45 -23 -25 -8 -52 -21 -60 -30 -8 -8 -33 -17 -55
-21 -22 -4 -40 -10 -40 -14 0 -3 -20 -15 -45 -26 -25 -11 -45 -23 -45 -27 0
-4 -18 -13 -41 -19 -23 -7 -43 -18 -46 -25 -3 -7 -20 -18 -39 -24 -19 -6 -34
-15 -34 -19 0 -4 -18 -16 -40 -26 -22 -10 -40 -21 -40 -24 0 -3 -20 -15 -45
-26 -25 -11 -45 -23 -45 -27 0 -5 -6 -8 -14 -8 -8 0 -21 -8 -28 -18 -7 -10
-29 -26 -49 -35 -20 -9 -39 -24 -43 -32 -3 -8 -11 -15 -18 -15 -7 0 -29 -14
-48 -30 -19 -16 -38 -30 -42 -30 -9 0 -38 -24 -76 -62 -14 -16 -30 -28 -35
-28 -10 0 -22 -10 -102 -85 -27 -26 -60 -51 -72 -56 -13 -5 -23 -15 -23 -23 0
-8 -9 -18 -20 -21 -11 -3 -20 -11 -20 -16 0 -12 -137 -12 -142 0 -1 6 -26 13
-55 17 l-52 6 -7 -51 c-4 -28 -10 -51 -14 -51 -11 0 -22 -72 -24 -154 0 -45
-5 -71 -13 -73 -7 -3 -13 -10 -13 -17 0 -6 -16 -26 -35 -45 -19 -18 -35 -38
-35 -46 0 -7 -11 -20 -25 -29 -14 -9 -25 -21 -25 -26 0 -5 -10 -20 -22 -33
-13 -13 -30 -34 -38 -47 -8 -13 -22 -31 -31 -40 -9 -10 -25 -32 -35 -50 -19
-34 -26 -44 -69 -94 -14 -16 -28 -40 -31 -53 -4 -13 -10 -23 -14 -23 -5 0 -11
-8 -14 -18 -4 -10 -14 -27 -24 -38 -10 -10 -24 -35 -31 -54 -8 -19 -31 -51
-52 -70 -28 -27 -40 -50 -50 -93 -8 -31 -16 -57 -20 -57 -3 0 -14 -20 -25 -45
-10 -25 -22 -45 -26 -45 -4 0 -13 -20 -19 -45 -6 -25 -15 -45 -20 -45 -5 0
-16 -25 -24 -55 -9 -30 -20 -55 -25 -55 -4 0 -13 -23 -20 -50 -7 -27 -15 -50
-19 -50 -9 0 -41 -93 -41 -116 0 -8 -4 -14 -8 -14 -8 0 -42 -106 -42 -133 0
-9 -4 -17 -9 -17 -5 0 -12 -18 -16 -40 -5 -31 -11 -40 -26 -40 -11 0 -23 8
-26 18 -7 19 -65 76 -107 106 -24 18 -26 24 -20 60 3 22 12 45 19 52 7 7 16
38 20 68 3 31 10 56 15 56 5 0 12 17 15 38 8 42 27 105 35 112 8 7 40 109 40
126 0 8 4 14 9 14 4 0 14 20 21 45 7 25 16 45 19 45 4 0 13 20 20 46 7 25 19
51 26 57 6 7 20 38 30 70 10 31 21 57 26 57 4 0 13 16 19 35 6 19 15 35 20 35
5 0 11 14 15 31 4 17 15 39 25 49 9 9 23 40 30 69 6 28 16 51 22 51 5 0 16 16
24 35 8 19 18 35 23 35 4 0 14 18 21 41 8 23 20 43 27 46 7 3 13 11 13 17 0 7
9 21 19 33 10 11 27 35 36 54 10 19 24 38 31 42 8 4 14 14 14 22 0 8 9 20 20
27 11 7 20 18 20 24 0 5 8 19 18 30 10 11 27 33 38 49 10 17 24 34 31 38 7 4
13 14 13 20 0 12 34 55 80 102 11 12 20 25 20 30 0 6 18 26 40 45 22 19 40 39
40 44 0 5 20 28 44 52 24 23 49 51 55 63 7 12 18 21 26 21 8 0 15 4 15 9 0 6
16 27 35 48 19 21 35 41 35 44 0 3 12 12 28 20 30 15 82 66 82 80 0 4 9 13 19
18 10 6 38 28 60 48 23 21 55 49 72 63 17 14 39 32 48 40 9 8 30 24 46 34 17
11 34 25 38 33 4 7 14 13 22 13 8 0 20 9 27 20 7 11 18 20 25 20 6 0 18 8 25
18 7 10 30 26 51 35 20 10 37 21 37 26 0 4 16 15 35 24 19 9 35 20 35 25 0 5
16 14 35 22 19 8 35 17 35 20 0 4 19 15 43 26 23 10 48 26 54 35 7 9 24 20 38
23 14 4 25 10 25 15 0 5 14 12 31 16 17 4 33 13 35 20 3 7 25 20 50 30 24 9
44 20 44 25 0 4 23 16 50 26 28 10 50 21 50 26 0 4 18 13 40 19 22 7 40 16 40
20 0 5 25 16 55 24 30 9 55 20 55 24 0 4 28 16 63 27 34 10 68 24 74 30 7 7
31 15 53 19 22 4 40 10 40 15 0 5 32 16 70 26 39 10 70 21 70 25 0 4 30 15 68
25 37 10 69 21 72 24 3 4 30 13 60 20 30 7 57 16 60 19 6 8 85 27 150 37 25 3
47 10 50 13 6 9 157 41 192 41 14 0 28 4 30 9 2 6 53 15 113 22 61 7 112 16
115 19 7 10 421 40 538 40 55 0 92 4 92 10 0 6 7 10 15 10 8 0 15 -4 15 -10z
m-140 -470 c0 -5 14 -10 30 -10 17 0 30 5 30 10 0 16 347 13 353 -2 4 -10 8
-9 16 2 7 10 11 11 11 3 0 -9 18 -13 58 -13 33 0 100 -3 150 -6 72 -6 92 -10
94 -23 4 -21 -14 -125 -23 -131 -9 -7 -29 -103 -29 -140 0 -17 -4 -30 -10 -30
-5 0 -10 -11 -10 -24 0 -33 -14 -40 -88 -41 -38 -1 -67 -7 -72 -14 -10 -18
-45 -20 -400 -25 -206 -3 -316 -9 -318 -16 -10 -30 -102 6 -102 40 0 6 -8 18
-17 28 -10 9 -27 36 -37 60 -10 23 -23 42 -27 42 -4 0 -13 16 -19 36 -7 19
-18 38 -25 41 -8 2 -18 18 -24 34 -5 16 -14 29 -19 29 -13 0 -44 79 -37 91 4
5 17 9 31 9 13 0 24 4 24 9 0 4 97 14 215 21 118 7 215 17 215 22 0 4 7 8 15
8 8 0 15 -4 15 -10z m880 -40 c0 -5 14 -10 31 -10 16 0 77 -7 135 -16 91 -14
104 -19 104 -36 0 -11 -6 -25 -12 -32 -7 -7 -26 -29 -43 -50 -16 -20 -49 -58
-72 -84 -23 -26 -51 -57 -63 -70 -11 -12 -20 -27 -20 -32 0 -6 -9 -10 -20 -10
-15 0 -23 12 -35 52 -8 28 -15 58 -15 65 0 7 -4 13 -9 13 -5 0 -15 20 -22 45
-7 25 -17 45 -20 45 -7 0 -29 88 -29 115 0 11 12 15 45 15 25 0 45 -4 45 -10z
m-1450 -30 c8 -5 10 -10 4 -10 -6 0 -16 -26 -22 -57 -16 -86 -24 -117 -32
-123 -8 -6 -40 -159 -40 -190 0 -11 -4 -20 -9 -20 -5 0 -12 -11 -15 -24 -6
-25 -41 -38 -136 -52 -25 -3 -48 -11 -52 -17 -10 -16 -35 15 -46 59 -6 21 -13
63 -17 92 -4 28 -10 52 -15 52 -4 0 -13 34 -20 75 -7 41 -17 75 -21 75 -5 0
-9 9 -9 19 0 21 10 26 77 36 28 4 44 13 48 25 4 12 20 20 53 25 26 4 49 10 52
14 3 4 41 12 85 18 44 5 85 11 90 11 6 1 17 -3 25 -8z m1894 -51 l68 -13 -5
-39 c-3 -22 -10 -43 -15 -46 -5 -3 -16 -42 -23 -86 -6 -44 -16 -83 -21 -86
-15 -9 -14 -122 0 -127 7 -2 12 -11 12 -19 0 -14 -11 -15 -75 -10 -96 9 -119
20 -112 55 3 15 11 101 18 191 13 175 23 206 64 197 11 -2 51 -10 89 -17z
m215 -57 c4 -5 43 -17 89 -27 l82 -18 0 -34 c0 -18 -4 -33 -8 -33 -5 0 -16
-43 -26 -95 -10 -52 -22 -95 -26 -95 -4 0 -16 -22 -26 -49 -19 -55 -30 -61
-111 -61 -60 0 -83 7 -83 25 0 7 -8 15 -19 18 -28 7 -33 76 -14 192 9 55 19
102 23 105 4 3 11 25 15 49 l7 43 46 -6 c25 -3 48 -10 51 -14z m-744 -54 c10
-35 21 -65 24 -68 3 -3 12 -23 20 -45 8 -22 17 -42 21 -45 4 -3 11 -24 15 -47
8 -49 12 -48 -108 -36 l-68 6 7 66 c4 36 10 68 14 71 4 3 10 28 14 55 17 127
32 138 61 43z m-1845 17 c0 -14 3 -25 8 -25 4 0 16 -45 26 -100 10 -55 21
-100 25 -100 4 0 13 -30 20 -67 14 -75 9 -83 -46 -83 -18 0 -33 -4 -33 -8 0
-12 -96 -35 -118 -27 -11 3 -22 15 -25 25 -3 11 -12 20 -21 20 -9 0 -21 12
-26 26 -6 14 -19 28 -30 31 -11 3 -20 9 -20 14 0 5 -40 50 -90 100 -83 84
-106 119 -79 119 6 0 16 6 24 13 7 8 42 20 77 27 35 7 66 18 69 23 4 5 36 11
70 13 35 1 78 7 94 13 55 17 75 14 75 -14z m2186 -20 c9 -8 11 -15 7 -15 -5 0
-15 -54 -22 -121 -7 -66 -15 -127 -18 -135 -6 -15 -63 -20 -63 -5 0 5 -27 12
-60 16 -56 7 -60 9 -54 29 3 11 11 26 18 31 6 6 20 27 29 48 10 20 25 37 33
37 8 0 18 8 21 18 4 9 24 34 45 55 21 21 38 42 38 47 0 14 9 12 26 -5z m689
-27 c25 -7 45 -15 45 -19 0 -4 15 -10 34 -13 18 -4 43 -15 55 -25 22 -19 22
-19 2 -26 -12 -3 -21 -12 -21 -20 0 -7 -6 -15 -14 -18 -19 -8 -30 -80 -16
-107 13 -24 31 -47 73 -91 52 -55 29 -149 -37 -149 -51 0 -85 21 -92 57 -6 31
-34 55 -34 30 0 -7 -6 -21 -13 -31 -12 -17 -16 -17 -90 0 -42 10 -77 22 -77
26 0 4 -7 8 -15 8 -22 0 -18 20 9 45 13 12 32 49 42 81 10 33 21 61 25 64 4 3
13 38 20 78 7 39 17 72 21 72 4 0 8 8 8 18 0 35 9 37 75 20z m-3349 -72 c3
-13 1 -58 -5 -100 -6 -43 -11 -124 -11 -182 0 -63 -4 -104 -10 -104 -5 0 -10
-12 -10 -26 0 -17 -6 -28 -20 -31 -11 -3 -20 -9 -20 -13 0 -5 -14 -12 -31 -15
-26 -6 -35 -3 -54 19 -13 15 -26 42 -29 61 -4 19 -11 35 -16 35 -5 0 -14 17
-20 38 -5 22 -19 49 -30 62 -11 13 -20 28 -20 35 0 17 -24 65 -32 65 -18 0 -7
49 12 55 11 3 20 11 20 16 0 5 9 9 19 9 11 0 22 4 25 9 3 5 22 12 41 15 19 4
35 11 35 16 0 6 11 10 24 10 14 0 28 5 31 10 3 6 15 10 25 10 11 0 25 7 32 15
19 21 37 18 44 -9z m1115 -33 c6 -20 20 -46 30 -57 11 -11 19 -27 19 -37 0
-17 -15 -20 -192 -35 l-78 -7 0 47 c0 25 5 46 10 46 6 0 10 13 10 30 0 23 5
31 23 35 33 7 77 12 124 14 39 1 42 -1 54 -36z m2484 -15 c14 -12 25 -30 25
-40 0 -24 26 -23 33 2 6 24 39 26 61 5 8 -8 29 -18 46 -22 18 -3 34 -12 37
-19 3 -8 10 -14 17 -14 6 0 17 -4 25 -9 13 -8 13 -15 1 -53 -8 -24 -17 -45
-20 -48 -4 -3 -15 -26 -25 -52 -10 -27 -21 -48 -25 -48 -4 0 -11 -16 -14 -35
-4 -19 -13 -40 -20 -48 -7 -7 -17 -24 -21 -37 -14 -43 -47 -64 -58 -36 -3 7
-26 18 -51 25 -25 6 -46 16 -46 21 0 6 -9 10 -20 10 -11 0 -20 7 -20 15 0 8 6
15 14 15 8 0 22 18 32 40 10 22 21 40 26 40 4 0 8 11 8 25 0 14 -4 25 -10 25
-5 0 -10 6 -10 14 0 23 -23 60 -64 101 -46 46 -51 80 -15 118 30 32 61 34 94
5z m-1895 -78 c0 -6 47 -10 120 -10 119 0 120 0 120 -23 0 -35 19 -47 75 -47
70 1 132 17 158 41 18 16 30 19 62 15 22 -3 82 -9 133 -12 50 -4 92 -10 92
-14 0 -4 30 -11 67 -15 36 -4 72 -9 80 -12 14 -6 18 -73 4 -73 -4 0 -11 -29
-13 -64 -3 -35 -9 -69 -12 -75 -4 -6 -31 -11 -61 -11 -60 0 -98 -14 -132 -48
-26 -26 -31 -62 -8 -62 8 0 15 -4 15 -10 0 -6 30 -10 70 -10 39 0 70 4 70 10
0 5 17 14 38 21 21 6 44 19 50 30 6 10 14 67 18 126 3 59 10 110 15 111 5 2 9
12 9 23 0 14 7 19 29 19 16 0 31 -4 33 -9 2 -6 43 -15 93 -21 49 -6 92 -16 96
-21 3 -5 41 -17 85 -26 43 -8 81 -19 84 -23 3 -4 39 -16 80 -26 41 -9 77 -21
80 -24 3 -4 29 -13 58 -19 30 -6 59 -17 67 -24 7 -7 38 -19 69 -27 31 -7 56
-17 56 -21 0 -4 26 -15 58 -25 31 -10 59 -21 62 -24 3 -4 22 -13 43 -21 20 -7
37 -16 37 -20 0 -3 20 -14 45 -25 25 -10 45 -21 45 -24 0 -3 20 -12 46 -19 25
-7 51 -20 59 -27 7 -8 17 -14 22 -14 15 0 63 -25 63 -33 0 -4 18 -14 40 -23
22 -9 40 -20 40 -24 0 -4 21 -15 46 -25 25 -10 58 -30 73 -45 14 -15 44 -35
65 -44 22 -9 46 -25 53 -36 8 -11 21 -20 29 -20 8 0 17 -7 20 -15 4 -8 12 -15
18 -15 7 0 21 -8 32 -18 10 -9 32 -26 49 -36 35 -23 49 -34 81 -63 14 -13 29
-23 34 -23 5 0 16 -11 25 -23 8 -13 27 -30 43 -38 15 -8 33 -22 40 -31 7 -10
19 -18 25 -18 7 0 27 -18 46 -40 19 -22 39 -40 44 -40 9 0 242 -235 317 -320
25 -28 62 -69 83 -92 20 -22 37 -42 37 -45 0 -5 21 -31 43 -51 9 -9 17 -22 17
-29 0 -7 9 -17 20 -23 11 -6 20 -17 20 -24 0 -7 17 -32 38 -54 21 -22 47 -59
57 -81 10 -23 22 -41 26 -41 5 0 16 -14 25 -32 9 -17 25 -40 35 -51 10 -12 19
-27 19 -34 0 -7 5 -13 10 -13 14 0 28 -40 23 -61 -3 -10 -12 -20 -21 -24 -33
-12 -62 -30 -62 -37 0 -5 -9 -8 -20 -8 -13 0 -20 7 -20 19 0 20 -54 81 -71 81
-6 0 -17 6 -24 14 -8 8 -46 17 -84 21 -60 6 -71 10 -77 28 -4 12 -38 53 -75
91 -38 38 -69 76 -69 83 0 7 -7 13 -15 13 -9 0 -18 7 -22 15 -6 18 -133 145
-144 145 -4 0 -29 21 -56 48 -27 26 -64 58 -81 72 -18 14 -32 30 -32 37 0 6
-9 14 -19 18 -11 3 -34 19 -53 35 -18 16 -37 30 -43 30 -5 0 -18 13 -29 28
-10 16 -31 34 -46 41 -15 6 -39 22 -53 34 -45 40 -67 57 -76 57 -4 0 -20 11
-33 25 -14 14 -41 30 -59 37 -19 6 -40 20 -47 30 -7 10 -19 18 -25 18 -7 0
-20 9 -30 20 -9 11 -23 20 -31 20 -8 0 -19 6 -23 13 -4 7 -28 21 -53 31 -25
10 -47 21 -50 25 -3 4 -23 14 -45 22 -32 12 -41 20 -43 43 -3 26 23 103 39
116 3 3 12 23 19 45 7 22 17 43 22 46 5 3 11 22 15 42 8 52 -20 50 -37 -3 -7
-22 -16 -40 -20 -40 -4 0 -13 -20 -19 -44 -6 -25 -18 -51 -26 -60 -8 -8 -15
-19 -15 -25 0 -24 -25 -61 -41 -61 -9 0 -19 3 -21 8 -5 11 -64 42 -82 42 -9 0
-16 4 -16 8 0 4 -22 16 -50 26 -27 10 -50 21 -50 26 0 4 -20 13 -45 20 -25 7
-45 16 -45 21 0 4 -26 16 -57 26 -32 9 -60 20 -63 24 -5 6 -76 27 -122 36 -16
3 -28 9 -28 13 0 5 -18 11 -40 15 -22 4 -46 12 -53 19 -6 7 -52 21 -102 31
-49 10 -92 22 -95 25 -3 4 -23 10 -45 13 -70 10 -160 31 -165 39 -3 4 -57 12
-120 19 -63 6 -117 15 -120 20 -6 9 -237 39 -304 39 -25 0 -46 4 -46 9 0 26
-892 28 -910 1 -5 -7 -66 -14 -274 -30 -65 -5 -122 -14 -126 -20 -3 -6 -47
-16 -96 -22 -49 -7 -91 -15 -94 -19 -3 -4 -47 -15 -97 -24 -51 -9 -93 -20 -93
-24 0 -4 -40 -15 -90 -25 -49 -11 -90 -22 -90 -26 0 -4 -28 -13 -62 -20 -33
-6 -67 -18 -74 -25 -8 -7 -32 -16 -54 -20 -22 -4 -46 -12 -53 -19 -6 -7 -45
-21 -84 -31 -40 -10 -73 -22 -73 -25 0 -4 -18 -13 -40 -20 -22 -7 -40 -16 -40
-20 0 -3 -25 -14 -55 -25 -30 -10 -55 -21 -55 -25 0 -4 -21 -15 -47 -25 -27
-10 -54 -25 -61 -32 -7 -7 -22 -13 -32 -13 -10 0 -25 -6 -33 -14 -8 -8 -30
-21 -51 -30 -20 -8 -36 -19 -36 -25 0 -5 -13 -12 -29 -16 -15 -3 -37 -14 -48
-23 -27 -24 -60 -42 -78 -42 -8 0 -15 -5 -15 -10 0 -6 -17 -18 -37 -28 -21 -9
-44 -25 -51 -34 -7 -10 -19 -18 -25 -18 -13 0 -42 -21 -101 -72 -17 -15 -36
-28 -42 -28 -7 0 -14 -7 -18 -15 -3 -8 -12 -15 -20 -15 -9 0 -23 -11 -32 -25
-9 -14 -22 -25 -30 -25 -7 0 -17 -6 -21 -13 -4 -8 -21 -22 -38 -33 -16 -10
-38 -29 -48 -41 -10 -13 -22 -23 -27 -23 -11 0 -53 -37 -161 -142 -43 -42 -88
-79 -98 -83 -11 -3 -23 -15 -26 -25 -3 -10 -15 -22 -26 -25 -10 -4 -19 -12
-19 -19 0 -8 -21 -36 -47 -64 -158 -169 -201 -219 -209 -244 -3 -10 -9 -18
-13 -18 -3 0 -15 -15 -26 -32 -20 -35 -30 -48 -57 -79 -10 -10 -18 -23 -18
-28 0 -5 -7 -14 -15 -21 -12 -10 -22 -9 -50 4 -19 9 -35 23 -35 31 0 7 -9 16
-19 20 -11 3 -26 17 -35 30 -9 14 -23 25 -31 25 -7 0 -17 9 -20 20 -3 11 -11
20 -16 20 -23 0 0 39 49 83 12 11 22 26 22 33 0 7 6 19 13 26 8 7 20 31 26 51
7 21 19 41 26 43 7 3 19 19 26 36 6 16 29 47 50 69 21 22 41 48 44 59 4 11 10
20 15 20 5 0 16 13 24 28 8 15 32 46 53 69 21 22 52 57 68 77 17 20 48 55 71
79 22 23 43 50 47 60 5 13 19 17 67 17 60 0 60 0 60 -29 0 -47 17 -80 45 -87
14 -3 25 -10 25 -15 0 -12 58 -11 73 1 7 6 20 16 31 24 19 13 34 109 35 228 1
54 3 58 28 64 22 6 32 1 60 -31 18 -20 33 -43 33 -51 0 -18 17 -26 40 -19 32
10 19 85 -14 85 -16 0 -66 59 -66 78 0 7 14 19 30 25 17 6 30 15 30 19 0 4 45
8 100 8 97 0 100 1 100 23 0 12 -9 28 -20 35 -11 7 -20 21 -20 33 0 11 -6 26
-13 34 -11 11 -16 10 -25 -6 -10 -15 -24 -19 -67 -19 -30 0 -55 3 -55 6 0 12
79 83 109 99 17 8 31 20 31 25 0 6 6 10 13 10 6 0 28 14 47 30 19 16 38 30 42
30 4 0 13 6 20 13 7 7 32 21 55 31 23 10 44 25 47 32 3 8 12 14 20 14 8 0 19
6 23 13 4 7 25 21 46 31 20 9 37 21 37 26 0 4 23 16 50 25 28 9 50 21 50 26 0
5 6 9 13 9 7 0 22 8 33 18 10 10 41 26 69 37 27 10 56 24 63 32 7 7 31 18 52
24 22 7 40 16 40 20 0 4 17 13 38 20 20 6 39 15 42 19 3 4 31 15 63 24 31 9
57 21 57 26 0 5 25 14 56 21 31 7 61 18 68 24 6 6 39 17 74 25 34 7 62 16 62
20 0 4 35 15 78 26 42 10 79 22 82 25 6 8 149 39 180 39 11 0 20 4 20 8 0 4
35 14 78 22 42 7 79 16 82 20 6 9 215 40 269 40 23 0 41 4 41 9 0 13 185 30
408 38 111 3 202 10 202 15 0 4 9 8 20 8 11 0 20 -4 20 -10z m-2056 -23 c7 -7
19 -29 27 -50 7 -20 16 -37 20 -37 3 0 14 -21 24 -47 10 -27 22 -50 26 -53 4
-3 10 -22 14 -43 6 -30 4 -37 -9 -37 -9 0 -16 4 -16 9 0 4 -20 14 -45 21 -25
7 -45 16 -45 20 0 4 -30 15 -67 25 -38 10 -71 22 -74 27 -3 4 -25 14 -50 21
-43 12 -69 47 -35 47 8 0 19 6 23 13 4 7 28 21 53 31 25 10 47 21 50 25 6 8
72 40 83 41 5 0 14 -6 21 -13z m4324 -54 c20 -10 44 -25 54 -35 10 -10 25 -18
33 -18 8 0 15 -4 15 -8 0 -5 20 -17 45 -28 52 -21 60 -44 15 -44 -34 0 -78
-18 -102 -42 -10 -10 -22 -18 -27 -18 -5 0 -15 -20 -22 -45 -7 -25 -17 -45
-21 -45 -14 0 -9 -138 5 -143 6 -3 2 -6 -9 -6 -25 -1 -106 26 -114 37 -3 5
-23 16 -45 24 -38 15 -40 18 -37 54 2 22 7 41 10 44 13 10 42 68 42 84 0 9 4
16 8 16 4 0 16 23 26 50 10 28 22 50 26 50 4 0 13 20 19 45 13 51 23 54 79 28z
m-3764 -20 c67 -74 77 -86 73 -96 -2 -6 -30 -18 -63 -26 -32 -8 -61 -18 -64
-22 -3 -4 -27 -13 -53 -19 -26 -7 -47 -16 -47 -21 0 -5 -9 -9 -20 -9 -18 0
-20 7 -20 76 0 83 11 103 58 104 12 0 22 4 22 9 0 8 51 28 77 30 6 1 23 -11
37 -26z m-844 -88 c0 -8 4 -15 10 -15 5 0 17 -25 25 -55 9 -30 20 -55 24 -55
4 0 14 -18 21 -40 7 -22 17 -40 21 -40 9 0 39 -94 39 -122 0 -10 -12 -24 -27
-31 -16 -6 -33 -18 -39 -26 -12 -16 -84 -7 -84 10 0 5 -11 14 -25 19 -14 5
-25 14 -25 19 0 5 -8 11 -17 15 -21 6 -51 25 -71 44 -7 6 -23 17 -35 23 -22
12 -36 23 -66 50 -10 8 -25 18 -34 22 -18 7 -21 16 -9 32 9 13 42 34 65 41 9
4 17 10 17 14 0 5 14 13 30 19 17 5 30 15 30 21 0 5 18 17 39 26 22 8 42 22
45 30 7 19 66 19 66 -1z m132 -48 c7 -7 35 -19 62 -26 26 -6 54 -18 62 -26 7
-7 32 -16 54 -20 22 -4 46 -12 53 -19 6 -6 27 -18 45 -25 42 -17 41 -37 -3
-45 -19 -4 -40 -12 -47 -19 -7 -7 -28 -19 -46 -26 -19 -8 -40 -20 -47 -27 -7
-8 -28 -15 -46 -16 -30 -3 -34 1 -48 37 -8 22 -18 42 -21 45 -4 3 -15 26 -25
53 -10 26 -21 47 -24 47 -7 0 -31 58 -31 73 0 12 48 7 62 -6z m4718 -7 c0 -5
16 -13 35 -19 38 -10 74 -45 75 -72 0 -21 24 -31 38 -17 13 13 60 -4 96 -36
35 -31 87 -70 99 -75 5 -2 18 -11 28 -20 10 -9 31 -26 46 -39 15 -13 40 -33
54 -45 14 -12 43 -35 64 -52 22 -16 48 -41 60 -54 31 -37 58 -61 67 -61 11 0
115 -106 129 -131 5 -11 14 -19 18 -19 14 0 65 -52 80 -82 8 -16 17 -28 21
-28 12 0 109 -101 115 -119 3 -11 17 -26 30 -35 14 -9 25 -21 25 -26 0 -5 10
-20 23 -33 12 -13 31 -36 41 -51 11 -15 30 -39 43 -54 13 -15 23 -30 23 -34 0
-4 6 -13 14 -20 7 -8 21 -28 30 -46 9 -18 21 -32 26 -32 6 0 10 -6 10 -14 0
-8 8 -21 18 -28 10 -7 26 -30 35 -50 10 -21 21 -38 25 -38 4 0 16 -20 27 -45
11 -25 23 -45 28 -45 4 0 7 -6 7 -13 0 -7 9 -23 21 -35 11 -13 27 -39 36 -60
8 -20 18 -39 22 -42 4 -3 15 -22 25 -44 20 -42 11 -81 -21 -93 -9 -4 -32 -23
-52 -43 -20 -20 -44 -39 -53 -43 -10 -3 -18 -11 -18 -17 0 -5 -9 -10 -19 -10
-12 0 -21 10 -26 28 -4 15 -15 35 -26 45 -10 10 -19 24 -19 32 0 8 -6 18 -12
22 -15 9 -36 41 -44 66 -4 9 -10 17 -15 17 -4 0 -16 17 -26 37 -9 21 -24 45
-33 54 -8 9 -24 29 -35 43 -11 15 -31 40 -45 56 -30 34 -56 65 -92 112 -37 47
-83 99 -108 123 -33 32 -70 76 -70 85 0 5 -6 10 -12 10 -15 0 -50 36 -67 68
-6 12 -18 22 -26 22 -8 0 -19 9 -25 21 -14 25 -47 59 -58 59 -5 0 -21 14 -35
30 -15 17 -32 30 -37 30 -6 0 -10 6 -10 13 0 8 -10 18 -22 24 -25 12 -53 34
-124 101 -25 23 -49 42 -52 42 -4 0 -23 14 -42 30 -19 16 -39 30 -44 30 -9 0
-18 8 -69 56 -12 11 -37 27 -54 35 -18 8 -33 17 -33 22 0 4 -16 15 -35 24 -19
9 -35 20 -35 24 0 4 -12 10 -26 13 -22 6 -25 11 -22 36 4 27 2 30 -24 30 -15
0 -28 5 -28 10 0 6 -12 10 -26 10 -67 0 -114 62 -114 149 0 52 25 131 41 131
5 0 14 10 20 23 10 22 51 47 76 47 7 0 13 5 13 10 0 6 11 10 25 10 14 0 25 -4
25 -10z m-5175 -247 c4 -46 10 -83 14 -83 4 0 13 -43 20 -96 9 -77 9 -103 -1
-125 -7 -16 -18 -29 -25 -29 -7 0 -16 -6 -20 -13 -4 -8 -15 -17 -23 -20 -24
-11 -51 -30 -76 -54 -13 -13 -28 -23 -34 -23 -5 0 -10 -7 -10 -15 0 -9 -9 -15
-25 -15 -22 0 -25 4 -25 40 0 46 18 90 37 90 23 0 14 35 -20 73 -22 26 -41 37
-60 37 -25 0 -27 -3 -27 -39 0 -59 -29 -138 -52 -144 -29 -8 -47 2 -54 30 -9
35 1 126 15 131 6 2 11 15 11 28 0 20 -5 24 -30 24 l-29 0 22 23 c12 13 32 29
45 36 12 6 22 18 22 26 0 8 6 15 13 15 6 0 25 14 40 30 16 17 34 30 40 30 7 0
18 9 25 20 7 11 17 20 24 20 6 0 18 6 27 14 9 8 28 26 43 39 15 14 40 31 57
38 17 8 31 18 32 24 2 32 18 -42 24 -112z m2690 14 c10 -10 14 -61 17 -193 4
-180 15 -234 46 -234 6 0 12 -4 12 -10 0 -6 -33 -10 -79 -10 -43 0 -92 -3
-108 -6 -24 -5 -36 0 -58 21 -16 16 -30 24 -34 18 -8 -13 -111 -26 -134 -17
-14 5 -17 20 -17 90 0 49 -4 84 -10 84 -6 0 -10 46 -10 119 0 141 -12 131 158
131 68 0 112 4 112 10 0 15 89 12 105 -3z m135 3 c0 -5 47 -11 108 -12 l107
-3 -1 -148 c0 -85 -5 -152 -10 -155 -6 -4 -16 -26 -22 -49 -7 -24 -17 -43 -23
-43 -6 0 -18 -7 -27 -16 -12 -13 -28 -15 -73 -10 -106 11 -129 56 -129 257 0
146 10 189 46 189 13 0 24 -4 24 -10z m-575 -30 c3 -5 11 -89 17 -187 6 -98
15 -180 20 -182 6 -2 4 -7 -3 -12 -12 -8 -11 -11 1 -20 11 -8 12 -12 3 -16 -7
-2 -13 -11 -13 -18 0 -14 -118 -30 -174 -23 -28 3 -29 4 -13 20 9 9 17 21 17
27 0 16 -26 13 -40 -4 -7 -8 -18 -15 -25 -15 -8 0 -15 -5 -17 -12 -5 -14 -127
-16 -136 -2 -4 5 -23 18 -42 28 -36 18 -60 54 -60 88 0 10 -4 18 -10 18 -6 0
-10 35 -10 85 0 47 4 85 9 85 5 0 13 10 17 23 19 60 112 98 189 77 25 -7 45
-17 45 -21 0 -5 7 -9 15 -9 8 0 15 8 15 18 0 32 17 43 81 51 92 12 107 12 114
1z m1069 -10 c10 -10 -3 -220 -14 -220 -4 0 -11 -44 -15 -97 -10 -133 -11
-134 -88 -126 -34 3 -63 10 -65 15 -2 4 -35 8 -73 8 -38 0 -69 3 -69 8 0 4 14
22 30 40 17 18 30 39 30 47 0 7 5 15 11 17 7 2 13 58 16 153 2 83 6 156 9 163
3 11 26 13 112 7 59 -4 111 -11 116 -15z m-3095 -49 c6 -10 24 -24 41 -31 37
-15 38 -32 3 -51 -15 -8 -35 -21 -44 -29 -33 -28 -44 -36 -78 -53 -56 -28 -67
-23 -75 29 -11 82 -8 92 26 110 18 9 38 23 46 30 20 21 69 18 81 -5z m3282
-14 c10 -12 18 -27 19 -34 0 -6 6 -14 13 -17 10 -5 10 -7 0 -12 -7 -3 -13 -12
-13 -19 0 -8 -11 -26 -25 -40 -33 -32 -120 -37 -127 -7 -8 30 9 144 24 154 22
14 89 -1 109 -25z m129 14 c0 -5 54 -17 120 -27 66 -10 120 -21 120 -25 0 -4
41 -15 90 -25 50 -10 90 -22 90 -26 0 -4 20 -10 45 -14 26 -3 51 -12 58 -18 7
-6 43 -19 82 -29 38 -11 72 -22 75 -26 3 -4 37 -16 75 -26 39 -10 76 -25 83
-32 7 -7 22 -13 32 -13 10 0 25 -6 32 -13 7 -7 37 -22 66 -32 28 -10 52 -22
52 -26 0 -3 21 -14 47 -24 27 -10 54 -25 61 -32 7 -7 20 -13 27 -13 26 0 34
-31 18 -69 -9 -20 -19 -38 -23 -41 -4 -3 -15 -32 -25 -65 -10 -33 -25 -64 -32
-68 -7 -4 -13 -15 -13 -22 0 -20 -27 -19 -38 1 -14 26 -79 43 -136 37 -63 -6
-116 -22 -116 -34 0 -13 -19 -11 -35 4 -7 7 -38 19 -69 26 -31 7 -56 16 -56
20 0 5 -34 14 -77 22 -42 7 -81 19 -88 25 -7 7 -40 18 -73 24 -34 7 -62 16
-62 20 0 4 -52 15 -115 25 -63 10 -115 21 -115 25 0 3 -44 12 -97 19 -54 7
-106 15 -115 18 -24 6 -23 30 2 38 10 3 25 22 32 41 6 18 16 34 20 34 4 0 8
14 8 30 0 17 -4 30 -9 30 -5 0 -11 10 -13 23 -2 12 -13 26 -25 32 -29 12 -29
31 -1 46 45 24 53 40 52 106 0 59 1 63 23 63 13 0 23 -4 23 -9z m-1885 -33
c-4 -13 -14 -29 -24 -36 -13 -10 -16 -31 -16 -103 0 -54 4 -93 11 -97 6 -4 14
-20 18 -37 7 -28 66 -95 84 -95 5 0 19 -8 31 -19 l21 -19 -45 -6 c-25 -3 -65
-9 -90 -12 -25 -4 -45 -10 -45 -15 0 -5 -10 -9 -22 -9 -37 0 -198 -34 -198
-41 0 -4 -34 -13 -75 -20 -41 -7 -75 -16 -75 -20 0 -3 -27 -12 -61 -19 -33 -7
-66 -18 -72 -24 -7 -7 -49 -20 -94 -31 -46 -10 -83 -22 -83 -26 0 -4 -16 -13
-35 -19 -19 -6 -35 -15 -35 -19 0 -4 -25 -13 -55 -20 -30 -7 -61 -19 -69 -27
-8 -8 -29 -17 -46 -20 -17 -4 -33 -11 -36 -15 -3 -5 -14 -9 -25 -9 -10 0 -19
-4 -19 -9 0 -5 -16 -15 -35 -21 -19 -6 -35 -15 -35 -19 0 -4 -25 -16 -55 -26
-30 -11 -55 -22 -55 -26 0 -4 -22 -15 -50 -25 -27 -10 -50 -22 -50 -26 0 -5
-13 -14 -30 -19 -16 -6 -30 -15 -30 -20 0 -5 -16 -16 -36 -24 -21 -8 -42 -21
-48 -29 -6 -7 -27 -19 -46 -27 -19 -7 -40 -18 -46 -24 -30 -27 -56 -45 -84
-60 -16 -8 -30 -19 -30 -24 0 -5 -13 -14 -30 -21 -16 -7 -42 -23 -57 -36 -48
-42 -57 -49 -79 -60 -25 -13 -47 -32 -107 -91 -24 -24 -49 -43 -55 -43 -6 0
-19 -11 -28 -25 -9 -14 -21 -25 -26 -25 -11 0 -308 -292 -308 -303 0 -3 -10
-17 -22 -30 -13 -13 -36 -40 -52 -60 -44 -55 -66 -50 -147 33 -38 39 -74 70
-79 70 -18 0 -10 42 13 66 41 42 54 59 67 84 7 14 21 31 32 38 10 7 18 19 18
27 0 8 9 19 20 25 11 6 20 16 20 22 0 5 18 28 40 49 22 22 40 43 40 47 0 11
71 82 82 82 4 0 8 6 8 14 0 15 171 190 194 199 9 4 16 13 16 21 0 8 9 17 19
21 11 3 41 28 68 55 26 27 52 50 56 50 5 0 22 12 37 28 46 44 64 59 90 72 14
7 31 21 38 32 7 10 18 18 24 18 5 0 19 11 30 25 11 14 26 25 34 25 8 0 14 4
14 10 0 5 17 17 38 27 20 9 43 25 50 35 7 10 20 18 28 18 8 0 14 4 14 10 0 5
16 17 35 26 19 9 35 20 35 24 0 4 19 15 43 26 23 10 48 24 55 31 7 7 24 16 38
19 13 3 24 10 24 14 0 10 57 40 75 40 7 0 15 6 18 14 3 8 24 20 46 27 23 7 41
16 41 20 0 4 14 12 30 18 17 5 30 14 30 18 0 5 20 15 46 22 25 7 51 20 59 27
7 8 18 14 24 14 13 0 84 32 91 41 3 4 25 13 50 20 25 7 47 16 50 19 3 4 33 15
68 25 34 10 62 22 62 26 0 4 32 15 70 24 39 9 70 20 70 24 0 5 31 13 69 20 39
7 71 17 73 22 2 4 41 16 88 25 47 8 87 19 90 24 5 8 146 37 188 39 20 1 22 -3
17 -21z m1675 -158 c0 -5 10 -10 23 -10 42 0 60 -23 65 -83 4 -55 3 -57 -27
-74 -17 -10 -31 -21 -31 -25 0 -14 -91 -8 -106 6 -16 16 -19 76 -4 76 6 0 10
13 10 29 0 16 3 43 6 60 6 26 11 31 35 31 16 0 29 -4 29 -10z m-4040 -87 c0
-5 18 -17 40 -27 22 -11 40 -22 40 -26 0 -4 16 -15 35 -26 19 -10 35 -21 35
-25 0 -3 11 -11 25 -17 14 -6 25 -18 25 -27 0 -8 6 -15 14 -15 17 0 76 -59 76
-76 0 -7 6 -14 12 -16 15 -5 12 -141 -3 -146 -14 -6 -11 -132 4 -133 10 0 10
-2 0 -6 -7 -2 -13 -16 -13 -29 0 -43 -18 -64 -54 -64 -26 0 -38 7 -51 27 -18
27 -17 37 12 126 4 13 0 17 -21 17 -14 0 -26 -4 -26 -10 0 -5 -25 -10 -55 -10
-30 0 -55 5 -55 10 0 6 -8 10 -19 10 -37 0 -81 22 -81 40 0 19 54 80 71 80 6
0 17 7 25 15 9 8 24 15 35 15 10 0 19 4 19 8 0 11 -29 50 -62 83 -16 15 -28
32 -28 39 0 6 -13 16 -30 21 -16 6 -30 14 -30 19 0 4 -8 10 -19 13 -35 9 -31
117 5 117 8 0 14 5 14 10 0 6 14 10 30 10 17 0 30 -3 30 -7z m-55 -187 c6 -6
22 -19 38 -29 15 -10 27 -24 27 -32 0 -8 5 -15 10 -15 24 0 8 -38 -21 -51 -18
-7 -41 -22 -54 -33 -12 -12 -36 -32 -53 -46 -40 -31 -40 -48 -2 -61 17 -6 30
-14 30 -18 0 -4 18 -14 40 -21 27 -9 40 -19 40 -32 0 -10 -6 -18 -14 -18 -7 0
-22 -12 -31 -27 -10 -16 -33 -43 -51 -61 -19 -18 -39 -42 -45 -55 -7 -12 -23
-30 -36 -40 -12 -10 -23 -22 -23 -27 0 -5 -10 -20 -22 -33 -32 -33 -58 -70
-58 -79 0 -4 -6 -8 -12 -8 -7 0 -21 -19 -32 -41 -20 -43 -57 -89 -73 -89 -5 0
-14 26 -20 59 -12 63 -39 99 -92 122 -17 8 -31 17 -31 21 0 5 -7 8 -16 8 -9 0
-14 3 -12 8 3 4 10 22 17 40 7 17 17 32 21 32 5 0 11 8 15 19 3 10 17 31 30
47 14 16 25 34 25 41 0 7 9 17 19 23 11 5 22 23 26 40 4 17 15 35 26 40 10 6
19 17 19 25 0 8 9 19 20 25 11 6 20 17 20 25 0 8 9 20 20 27 11 7 20 18 20 25
0 6 8 18 18 25 9 7 25 26 35 41 10 16 36 45 58 66 21 21 39 43 39 49 0 30 62
35 85 8z m-470 -668 c14 -12 25 -32 25 -45 0 -13 5 -23 10 -23 6 0 10 -18 10
-40 0 -22 -4 -40 -10 -40 -5 0 -10 -17 -10 -37 -1 -46 -15 -114 -27 -122 -4
-3 -14 -18 -22 -33 -8 -16 -21 -28 -29 -28 -18 0 -41 29 -42 53 0 9 -4 17 -10
17 -6 0 -10 32 -10 75 0 43 4 75 10 75 6 0 10 15 10 34 0 40 17 83 45 113 25
27 21 27 50 1z m7713 -473 c9 -22 21 -44 29 -48 7 -4 13 -16 13 -26 0 -10 9
-28 20 -41 12 -13 26 -43 32 -67 5 -24 14 -43 18 -43 4 0 15 -27 25 -60 10
-33 21 -60 25 -60 4 0 13 -20 19 -45 6 -25 15 -45 19 -45 4 0 16 -29 27 -65
10 -36 22 -65 25 -65 4 0 12 -29 19 -65 7 -36 17 -65 21 -65 4 0 10 -12 13
-27 18 -90 31 -133 38 -133 5 0 9 -12 9 -27 0 -40 33 -208 42 -211 4 -2 8 -19
8 -38 l0 -34 -63 0 c-80 0 -89 11 -112 129 -10 50 -22 91 -26 91 -5 0 -13 19
-19 42 -7 22 -18 47 -26 55 -8 8 -14 23 -14 33 0 20 -20 71 -31 80 -3 3 -12
29 -19 58 -7 29 -18 58 -25 65 -7 7 -18 29 -26 50 -7 20 -16 37 -20 37 -3 0
-14 21 -24 48 -10 26 -24 52 -30 57 -7 6 -18 26 -26 45 -7 19 -19 41 -26 48
-7 7 -13 20 -13 27 0 8 -6 18 -13 22 -7 4 -21 25 -31 46 -9 20 -20 37 -25 37
-4 0 -15 16 -25 36 -20 44 -13 90 15 99 11 4 27 17 35 31 9 13 21 24 28 24 6
0 22 12 35 26 33 35 60 28 79 -21z m-8399 -344 c28 -27 51 -54 51 -60 0 -5 7
-16 15 -25 8 -8 18 -29 21 -45 6 -28 4 -31 -20 -31 -14 0 -26 5 -26 10 0 6 -9
10 -19 10 -34 0 -51 12 -51 35 0 18 -4 22 -21 18 -14 -4 -29 3 -48 23 -115
119 -21 181 98 65z m44 -182 c47 -10 56 -15 62 -38 4 -14 11 -28 16 -32 14 -8
14 -100 0 -108 -7 -4 -19 -66 -28 -137 -9 -71 -21 -132 -25 -135 -7 -5 -15
-96 -21 -239 l-2 -45 -70 0 -70 0 1 150 c0 168 23 485 34 485 4 0 11 25 15 55
7 61 6 60 88 44z m567 1 c0 -5 7 -10 15 -10 8 0 15 -4 15 -10 0 -5 7 -10 15
-10 23 0 85 -69 85 -93 0 -30 -18 -56 -27 -40 -5 6 -29 14 -55 18 -27 4 -48
11 -48 16 0 5 -22 9 -50 9 -27 0 -50 5 -50 10 0 6 -6 10 -14 10 -8 0 -17 4
-20 8 -9 15 6 52 20 52 8 0 17 7 20 15 4 8 15 15 25 15 10 0 19 5 19 10 0 6
11 10 25 10 14 0 25 -4 25 -10z m-257 -92 c14 -7 17 -16 13 -34 -4 -14 -2 -24
4 -24 5 0 10 -7 10 -15 0 -9 6 -18 14 -21 8 -3 17 -16 20 -30 4 -13 13 -24 21
-24 8 0 15 -4 15 -10 0 -5 14 -16 30 -25 26 -13 29 -20 23 -42 -18 -75 -68
-79 -133 -12 -32 33 -40 49 -40 78 0 25 -3 32 -9 22 -15 -23 -38 3 -46 50 -4
21 -10 39 -15 39 -9 0 -19 58 -11 66 7 7 81 -6 104 -18z m174 -40 c18 -7 33
-19 34 -28 0 -10 2 -11 6 -2 5 14 73 17 73 3 0 -5 23 -15 51 -22 l51 -13 -6
-38 c-8 -48 -87 -132 -133 -143 -18 -3 -33 -11 -33 -16 0 -16 -57 -10 -64 7
-8 20 14 95 28 99 6 2 32 6 59 10 38 5 47 10 47 26 0 23 -13 25 -34 4 -19 -20
-56 -19 -56 1 0 10 -6 13 -19 9 -29 -9 -51 5 -66 42 -30 71 -13 88 62 61z
m-337 -99 c7 -21 19 -40 26 -43 8 -3 14 -11 14 -19 0 -7 12 -24 26 -36 24 -20
25 -27 19 -69 -4 -26 -11 -49 -15 -52 -10 -6 -27 -99 -36 -200 -3 -41 -11 -78
-18 -82 -13 -9 -108 -10 -130 -2 -12 5 -16 20 -16 64 0 32 4 60 8 62 5 2 16
77 26 168 9 91 21 167 26 168 6 2 10 19 10 37 0 18 3 40 6 49 9 24 40 -1 54
-45z m500 -154 c0 -8 -4 -15 -8 -15 -4 0 -16 -22 -27 -50 -11 -27 -23 -50 -27
-50 -4 0 -15 -25 -23 -55 -9 -30 -20 -55 -24 -55 -4 0 -12 -20 -19 -45 -7 -25
-16 -45 -22 -45 -5 0 -10 -7 -10 -15 0 -12 -13 -15 -56 -15 -36 0 -61 5 -70
15 -9 8 -11 15 -5 15 5 0 15 34 22 75 6 41 15 75 19 75 4 0 11 21 15 46 10 68
13 73 53 79 76 12 125 26 139 40 19 19 43 19 43 0z m-345 -9 c8 -7 34 -17 60
-20 39 -6 45 -10 45 -31 0 -13 -4 -25 -10 -27 -5 -1 -15 -38 -22 -80 -6 -43
-15 -78 -19 -78 -4 0 -10 -22 -14 -49 -6 -44 -10 -49 -36 -55 -16 -3 -50 -3
-75 1 -45 6 -46 7 -40 37 3 17 8 57 12 89 3 31 10 57 15 57 5 0 9 18 9 40 0
65 21 130 43 130 10 0 25 -6 32 -14z"/>
<path d="M9987 2367 c-9 -6 -9 -10 1 -14 17 -7 18 -493 0 -493 -6 0 -9 -3 -5
-6 3 -4 117 -6 253 -5 l247 1 1 41 1 41 -193 -1 -193 -2 3 220 3 219 -53 4
c-30 2 -59 -1 -65 -5z"/>
<path d="M10566 2363 c4 -10 10 -97 12 -193 2 -96 7 -177 11 -180 4 -3 13 -23
20 -46 11 -33 20 -43 50 -54 20 -7 39 -18 43 -24 10 -15 286 -15 296 0 4 6 24
17 45 23 20 7 37 19 37 26 0 7 8 21 18 31 15 15 18 45 22 226 l5 208 -67 0
c-56 0 -66 -3 -62 -15 4 -8 10 -15 15 -15 5 0 9 -81 9 -180 0 -99 -3 -180 -8
-180 -4 0 -12 -10 -17 -22 -13 -29 -41 -36 -150 -36 -126 0 -138 5 -149 56 -5
23 -13 42 -17 42 -5 0 -9 45 -9 100 0 60 4 100 10 100 6 0 10 7 10 15 0 8 -4
15 -10 15 -5 0 -10 20 -10 45 0 25 5 45 10 45 6 0 10 7 10 15 0 12 -14 15 -66
15 -59 0 -65 -2 -58 -17z"/>
<path d="M11278 2183 c2 -112 7 -199 13 -201 12 -5 12 -92 0 -92 -5 0 -11 -9
-14 -21 -6 -21 -5 -21 220 -17 170 2 227 6 231 16 2 6 9 12 15 12 28 1 57 40
63 83 8 59 -3 117 -21 117 -8 0 -15 5 -15 10 0 6 -6 10 -14 10 -14 0 -26 21
-26 43 0 7 10 17 23 22 19 9 22 19 25 69 7 131 -26 146 -312 146 l-191 0 3
-197z m405 118 c4 0 7 -8 7 -16 0 -8 5 -15 10 -15 6 0 10 -9 10 -20 0 -11 -4
-20 -10 -20 -5 0 -10 -9 -10 -19 0 -11 -5 -23 -12 -27 -6 -4 -71 -9 -144 -12
-111 -4 -136 -2 -149 11 -17 17 -20 47 -5 47 6 0 10 9 10 20 0 11 -4 20 -10
20 -5 0 -3 8 6 18 14 17 31 19 152 17 76 -1 140 -3 145 -4z m-67 -207 c75 -6
104 -29 104 -79 0 -41 -28 -71 -73 -77 -18 -3 -81 -4 -142 -4 l-110 1 -3 68
c-2 41 -7 67 -14 67 -6 0 -8 3 -4 7 7 7 66 15 151 20 17 1 58 0 91 -3z"/>
<path d="M9492 2360 c-24 -3 -47 -11 -50 -16 -4 -6 -26 -16 -49 -22 -24 -7
-43 -17 -43 -22 0 -5 -15 -24 -33 -42 -80 -80 -77 -249 6 -329 23 -21 47 -39
53 -39 7 0 19 -6 26 -13 48 -48 328 -49 376 -1 7 7 28 18 47 25 22 8 35 20 35
31 0 10 -5 18 -10 18 -6 0 -18 16 -27 35 -20 43 -27 44 -43 5 -9 -21 -25 -34
-59 -47 -25 -9 -49 -21 -52 -26 -8 -12 -171 -11 -178 1 -3 5 -23 15 -45 23
-22 8 -42 23 -47 35 -4 12 -13 24 -18 25 -18 6 -31 113 -20 153 6 20 14 36 19
36 6 0 10 6 10 13 1 31 61 77 99 77 12 0 21 5 21 10 0 6 30 10 70 10 40 0 70
-4 70 -10 0 -5 15 -10 34 -10 23 0 42 -9 63 -29 34 -33 48 -27 75 29 l17 35
-31 7 c-17 3 -34 11 -37 17 -15 23 -187 36 -279 21z"/>
<path d="M7460 2353 c-19 -2 -37 -9 -40 -14 -3 -5 -23 -15 -44 -22 -23 -8 -44
-24 -54 -42 -10 -17 -21 -33 -27 -37 -12 -9 -11 -97 1 -106 5 -4 14 -16 20
-27 7 -12 28 -24 53 -29 22 -5 41 -13 41 -17 0 -5 53 -10 118 -10 160 -2 195
-12 207 -60 5 -19 2 -31 -10 -40 -8 -8 -21 -19 -28 -25 -19 -17 -65 -25 -153
-26 -114 -2 -159 8 -174 38 -8 13 -17 24 -22 24 -4 0 -8 7 -8 16 0 27 -19 5
-26 -31 -3 -18 -12 -36 -20 -39 -8 -3 -14 -14 -14 -24 0 -14 14 -21 63 -32 34
-7 65 -18 69 -24 9 -14 257 -13 266 1 4 6 26 16 50 22 23 7 42 15 42 20 0 4
11 14 24 21 18 9 28 26 34 57 13 58 0 103 -41 145 l-32 32 -164 9 c-153 9
-166 11 -188 33 -29 29 -29 37 2 68 61 62 257 62 323 1 15 -14 29 -25 32 -25
4 0 14 19 25 43 10 23 22 44 26 48 5 3 -19 11 -54 18 -34 7 -65 18 -69 24 -7
12 -165 19 -228 10z"/>
<path d="M7940 2346 c0 -8 6 -16 12 -18 10 -4 13 -66 15 -258 l2 -254 53 3
c29 1 54 3 54 4 1 1 -2 34 -6 72 -3 39 -6 159 -6 267 l1 198 -62 0 c-48 0 -63
-3 -63 -14z"/>
<path d="M8440 2353 c-8 -3 -17 -9 -20 -12 -3 -4 -24 -13 -47 -19 -24 -7 -53
-23 -65 -37 -47 -49 -68 -77 -68 -91 0 -8 -4 -14 -10 -14 -6 0 -10 -37 -10
-90 0 -49 4 -90 9 -90 5 0 15 -16 21 -35 6 -19 15 -35 20 -35 5 0 20 -10 34
-22 44 -42 54 -47 100 -59 25 -6 46 -15 46 -20 0 -5 36 -9 80 -9 47 0 80 4 80
10 0 6 11 10 25 10 35 0 115 23 115 33 0 4 14 13 30 18 34 12 40 41 12 61 -10
7 -21 21 -25 31 -9 23 -37 22 -37 -1 0 -22 -30 -52 -52 -52 -9 0 -18 -6 -20
-12 -3 -9 -36 -13 -115 -13 -89 0 -112 3 -126 17 -10 9 -26 19 -37 23 -19 6
-50 56 -50 82 0 7 -4 13 -10 13 -6 0 -10 27 -10 60 0 33 4 60 8 60 5 0 15 12
23 28 30 58 86 92 155 92 19 0 34 5 34 10 0 6 7 10 15 10 8 0 15 -4 15 -10 0
-5 17 -10 37 -10 51 0 99 -19 114 -46 15 -29 43 -17 53 21 4 14 11 25 16 25
22 0 8 30 -15 35 -14 3 -37 8 -52 11 -15 3 -31 11 -35 17 -8 13 -211 21 -238
10z"/>
<path d="M6300 2316 c0 -19 -6 -41 -13 -48 -7 -7 -19 -29 -26 -48 -8 -19 -19
-39 -26 -45 -6 -5 -17 -25 -24 -42 -7 -18 -17 -33 -22 -33 -5 0 -9 -9 -9 -21
0 -31 -32 -79 -52 -79 -10 0 -18 6 -18 14 0 8 -6 21 -13 28 -7 7 -19 28 -26
46 -7 17 -17 32 -21 32 -5 0 -13 15 -20 34 -6 19 -20 44 -30 57 -11 12 -20 28
-20 35 0 7 -7 20 -16 28 -8 9 -16 25 -17 36 -1 18 -8 20 -69 20 -61 0 -89 -11
-55 -22 9 -4 12 -64 12 -256 l0 -252 45 0 45 0 -3 75 c-2 41 -8 75 -13 75 -14
0 -11 38 4 43 10 4 10 6 0 6 -19 1 -17 128 2 147 13 13 17 12 33 -4 11 -11 25
-37 32 -58 7 -22 19 -43 26 -47 8 -4 14 -14 14 -21 0 -17 23 -66 32 -66 3 0
12 -16 18 -35 6 -19 15 -35 20 -35 5 0 11 -13 15 -30 7 -32 25 -51 25 -26 0 9
4 16 9 16 5 0 17 23 27 50 10 28 21 50 26 50 4 0 13 18 19 40 7 22 16 40 20
40 4 0 15 23 25 50 10 28 21 50 25 50 4 0 11 9 14 20 3 11 15 20 26 20 18 0
19 -9 19 -160 0 -100 -4 -160 -10 -160 -5 0 -10 -8 -10 -17 0 -16 9 -18 62
-16 47 1 62 5 58 15 -3 10 -11 384 -10 516 0 6 -7 12 -15 12 -8 0 -15 -4 -15
-10 0 -5 -9 -10 -20 -10 -11 0 -20 5 -20 10 0 6 -13 10 -30 10 -27 0 -30 -3
-30 -34z"/>
<path d="M6589 2228 c1 -68 7 -124 12 -126 5 -2 9 -39 9 -83 0 -100 19 -152
63 -170 18 -7 35 -18 39 -23 5 -7 63 -11 158 -11 134 0 153 2 161 18 6 9 19
17 30 17 11 0 22 7 25 15 4 8 12 15 20 15 23 0 33 70 36 273 l3 197 -51 0 -51
0 5 -183 c6 -233 1 -251 -69 -266 -64 -14 -177 -14 -216 -1 -17 6 -36 22 -43
35 -7 14 -17 25 -22 25 -4 0 -8 83 -8 185 0 117 4 185 10 185 6 0 10 5 10 10
0 6 -28 10 -62 10 l-63 0 4 -122z"/>
<path d="M4565 2318 c-71 -5 -190 -7 -263 -6 l-132 3 0 -55 c0 -32 4 -50 8
-42 6 9 36 12 111 10 l102 -3 2 -227 1 -228 23 0 c13 0 23 5 23 10 0 6 9 10
20 10 11 0 20 -5 20 -12 0 -6 3 -9 6 -5 3 3 6 108 7 234 l2 228 108 -2 107 -2
0 50 c0 27 -3 48 -7 48 -5 -1 -66 -6 -138 -11z"/>
<path d="M4993 2283 c-1 -20 -6 -39 -11 -42 -5 -3 -15 -23 -21 -43 -7 -21 -16
-38 -20 -38 -4 0 -16 -27 -26 -60 -10 -33 -21 -60 -24 -60 -4 0 -13 -20 -20
-46 -7 -25 -19 -51 -26 -58 -8 -7 -18 -32 -25 -54 -6 -23 -14 -42 -18 -42 -4
0 -12 -11 -19 -25 -11 -25 -11 -25 43 -25 50 0 54 2 54 24 0 13 3 26 8 28 4 2
14 23 23 48 l16 45 124 3 c68 1 133 1 144 -2 21 -5 55 -80 55 -118 0 -10 3
-18 8 -18 81 -5 121 -3 117 5 -3 5 -8 18 -11 28 -4 9 -10 17 -14 17 -4 0 -13
18 -20 40 -7 22 -17 40 -21 40 -4 0 -15 23 -25 50 -10 28 -21 50 -25 50 -4 0
-15 23 -25 50 -10 28 -21 50 -24 50 -4 0 -13 18 -20 40 -7 22 -16 40 -20 40
-11 0 -42 88 -35 100 4 6 -20 10 -67 10 l-73 0 -2 -37z m113 -158 c3 -19 10
-35 15 -35 14 0 30 -50 24 -71 -7 -20 -35 -27 -35 -9 0 6 -16 10 -35 10 -19 0
-35 -4 -35 -10 0 -5 -16 -10 -35 -10 -31 0 -35 3 -35 25 0 14 4 25 10 25 5 0
12 16 16 35 3 19 10 38 15 41 5 3 9 14 9 25 0 10 4 19 9 19 5 0 13 9 16 21 7
20 7 19 30 -5 13 -15 27 -42 31 -61z"/>
<path d="M3298 2246 c3 -34 8 -63 13 -66 9 -6 15 -227 6 -236 -14 -14 -58 8
-72 36 -14 27 -47 63 -107 116 -12 11 -33 32 -44 45 -12 13 -42 43 -67 66 -26
24 -49 54 -53 68 -6 23 -10 25 -70 25 l-64 0 0 -45 c0 -25 5 -45 10 -45 14 0
12 -27 -2 -34 -10 -5 -10 -7 0 -12 6 -3 12 -14 12 -24 0 -10 -6 -21 -12 -24
-10 -5 -10 -7 0 -12 9 -4 12 -49 12 -175 l0 -169 48 0 47 0 -3 95 c-2 52 -8
95 -13 95 -14 0 -11 47 4 54 10 5 10 7 0 12 -20 9 -17 110 3 118 19 7 26 2
111 -82 34 -35 63 -70 63 -78 0 -8 4 -14 9 -14 4 0 35 -27 67 -61 32 -33 69
-70 82 -82 12 -11 22 -29 22 -38 0 -15 8 -18 48 -16 l48 2 0 270 -1 271 -51 0
-52 1 6 -61z"/>
<path d="M3740 2275 c0 -19 -4 -35 -8 -35 -4 0 -16 -25 -27 -55 -10 -30 -22
-55 -26 -55 -5 0 -11 -17 -15 -37 -3 -21 -12 -42 -18 -48 -7 -5 -21 -38 -31
-72 -10 -35 -22 -63 -25 -63 -4 0 -12 -19 -19 -41 -7 -23 -21 -51 -32 -62 -33
-36 -25 -48 34 -43 46 3 52 7 56 27 1 13 6 26 10 29 4 3 13 24 19 48 8 24 19
42 27 42 8 0 15 5 15 10 0 6 48 10 125 10 82 0 125 -4 125 -11 0 -6 6 -17 14
-25 8 -8 20 -39 27 -69 10 -47 16 -55 35 -55 12 0 25 6 28 13 5 10 7 10 12 0
8 -19 54 -16 54 2 0 9 -6 18 -14 21 -7 3 -19 24 -27 47 -7 23 -19 45 -26 50
-7 4 -15 23 -19 42 -3 19 -15 44 -25 56 -11 12 -24 39 -29 61 -6 21 -15 38
-20 38 -4 0 -11 14 -15 30 -4 17 -12 36 -18 43 -22 24 -37 56 -43 97 l-7 40
-68 0 -69 0 0 -35z m80 -105 c11 -6 24 -29 31 -53 6 -23 15 -45 20 -48 6 -3
12 -22 16 -43 l6 -37 -88 3 c-90 3 -109 12 -82 40 8 7 22 38 32 68 16 47 33
78 43 80 2 0 12 -5 22 -10z"/>
<path d="M1498 2112 c2 -92 8 -168 13 -170 12 -5 11 -32 -1 -32 -5 0 -10 -13
-10 -30 0 -16 5 -30 10 -30 6 0 10 -18 10 -40 0 -22 -4 -40 -10 -40 -5 0 -10
-7 -10 -15 0 -11 13 -14 58 -14 l57 1 0 100 c0 88 2 102 19 112 10 6 32 24 47
39 l28 29 31 -34 c17 -18 37 -40 45 -49 8 -9 15 -20 15 -25 0 -5 14 -22 30
-37 17 -16 30 -35 30 -42 0 -7 11 -20 25 -29 14 -9 25 -23 25 -31 0 -7 8 -16
18 -19 15 -4 99 -9 129 -7 14 1 -29 51 -44 51 -5 0 -15 11 -21 25 -6 14 -16
25 -22 25 -5 0 -10 5 -10 11 0 6 -20 31 -45 56 -25 24 -45 48 -45 52 0 4 -19
26 -41 49 -43 42 -47 69 -11 79 10 2 26 17 37 33 10 15 34 35 52 44 18 9 33
20 33 25 0 5 8 12 18 15 9 3 33 19 52 36 l35 30 -72 0 c-79 0 -103 -6 -103
-25 0 -6 -18 -27 -41 -46 -22 -19 -49 -42 -60 -51 -10 -10 -23 -18 -28 -18 -5
0 -12 -8 -15 -18 -3 -9 -23 -26 -43 -37 -21 -11 -42 -26 -46 -33 -19 -29 -27
6 -27 112 l0 113 -57 2 -58 1 3 -168z"/>
<path d="M2357 2239 c-3 -23 -10 -45 -15 -48 -5 -3 -18 -32 -28 -63 -10 -32
-21 -58 -25 -58 -4 0 -13 -20 -20 -45 -7 -25 -16 -45 -20 -45 -4 0 -15 -27
-25 -60 -10 -33 -21 -60 -26 -60 -4 0 -12 -19 -19 -42 -6 -23 -18 -48 -27 -55
-14 -10 -10 -12 31 -13 58 0 70 10 87 76 7 28 21 56 30 62 10 6 66 11 126 12
163 3 152 5 170 -40 9 -22 20 -40 25 -40 5 0 9 -15 9 -32 l0 -33 55 0 c50 0
54 2 49 20 -3 11 -12 25 -18 30 -7 6 -21 31 -31 58 -10 26 -21 47 -25 47 -4 0
-13 20 -19 45 -6 25 -15 45 -19 45 -7 0 -25 37 -37 78 -3 12 -10 22 -14 22 -4
0 -13 18 -20 40 -6 22 -16 40 -20 40 -5 0 -15 23 -22 50 l-13 50 -67 0 -66 0
-6 -41z m104 -111 c7 -18 19 -39 26 -46 7 -7 13 -21 13 -31 0 -9 9 -27 20 -38
20 -22 20 -22 0 -28 -11 -4 -20 -11 -20 -16 0 -5 -34 -9 -75 -9 -70 0 -75 1
-75 21 0 27 32 119 42 119 3 0 9 14 13 30 9 41 39 40 56 -2z"/>
<path d="M13094 1192 c-6 -4 -13 -15 -17 -24 -6 -17 -34 -18 -401 -18 -217 0
-401 3 -410 6 -9 3 -16 12 -16 20 0 8 -4 14 -9 14 -7 0 -8 -232 -2 -279 1 -2
11 8 24 22 22 27 24 27 160 27 l137 0 1 -232 c0 -128 1 -262 2 -298 2 -59 0
-65 -23 -77 -21 -11 1 -13 145 -13 162 1 169 1 144 17 l-27 16 -7 181 c-3 100
-5 233 -3 296 l3 115 125 2 c145 1 180 -3 180 -23 0 -8 3 -14 8 -14 4 0 6 51
4 113 -4 148 -5 158 -18 149z"/>
<path d="M9276 1142 c-9 -28 -91 -33 -476 -32 -177 1 -324 -1 -327 -4 -3 -3 6
-8 19 -11 l25 -6 6 -232 c4 -128 7 -300 7 -383 0 -142 -1 -151 -20 -160 -13
-5 134 -8 374 -6 l394 4 21 -23 21 -23 0 132 c0 73 -2 132 -5 132 -3 0 -15 -9
-27 -20 -19 -17 -37 -20 -127 -21 -58 -1 -172 -3 -253 -5 -82 -1 -148 0 -148
4 -1 4 -3 35 -5 68 -4 44 -1 65 8 73 18 15 306 16 320 2 6 -6 17 -11 24 -11
10 0 13 26 13 105 0 106 -7 123 -34 84 -14 -20 -23 -21 -167 -20 -111 1 -155
4 -161 13 -4 7 -7 38 -6 68 l3 55 48 3 c26 2 47 7 47 13 0 14 38 11 43 -3 4
-10 6 -10 6 0 1 15 231 18 231 2 0 -5 7 -10 15 -10 8 0 15 5 15 10 0 6 25 10
55 10 50 0 55 -2 61 -25 3 -14 13 -25 20 -25 12 0 14 23 12 127 -2 85 -7 128
-15 130 -6 2 -14 -5 -17 -15z"/>
<path d="M10390 1126 c0 -7 8 -16 18 -18 17 -5 19 -23 25 -218 12 -371 9 -540
-8 -546 -8 -4 -15 -12 -15 -18 0 -9 37 -11 148 -8 81 2 149 6 152 9 3 3 -5 13
-17 23 -22 17 -23 25 -23 149 l0 131 91 0 c82 0 91 -2 96 -20 3 -11 9 -20 14
-20 5 0 14 -11 19 -25 5 -14 14 -25 19 -25 5 0 11 -8 15 -17 7 -21 24 -47 51
-78 51 -58 67 -95 41 -95 -9 0 -16 -7 -16 -15 0 -13 24 -15 155 -15 85 0 155
3 155 6 0 3 -17 22 -38 42 -21 20 -47 53 -58 72 -10 19 -27 41 -36 48 -10 7
-18 19 -18 25 0 7 -9 18 -20 25 -11 7 -20 18 -20 26 0 7 -10 20 -22 28 -30 20
-18 44 26 52 20 4 36 11 36 16 0 6 8 10 18 10 21 0 87 66 96 98 4 12 12 22 17
22 5 0 9 36 9 80 0 47 -4 80 -10 80 -5 0 -10 8 -10 19 0 32 -29 91 -45 91 -8
0 -15 7 -15 15 0 15 -84 45 -127 45 -13 0 -23 5 -23 10 0 6 -77 10 -210 10
-133 0 -210 -4 -210 -10 0 -5 -7 -10 -15 -10 -8 0 -15 5 -15 10 0 6 -45 10
-115 10 -91 0 -115 -3 -115 -14z m606 -165 c51 -14 74 -41 74 -83 0 -20 -7
-43 -15 -50 -49 -44 -44 -43 -220 -43 l-170 0 0 83 c0 64 3 86 15 92 20 12
276 13 316 1z"/>
<path d="M6800 1098 c-35 -5 -67 -13 -70 -18 -3 -4 -25 -16 -50 -26 -25 -10
-51 -24 -58 -31 -7 -7 -18 -13 -23 -13 -9 0 -95 -84 -128 -125 -15 -19 -41
-108 -41 -142 0 -13 -4 -23 -10 -23 -5 0 -10 -11 -10 -25 0 -14 5 -25 10 -25
6 0 10 -16 10 -35 0 -41 26 -123 46 -142 8 -8 14 -21 14 -29 0 -8 6 -14 13
-14 7 0 17 -10 22 -22 6 -12 19 -26 30 -32 11 -6 24 -16 30 -23 5 -6 29 -17
53 -23 23 -6 42 -15 42 -20 0 -5 26 -14 58 -21 31 -7 60 -17 64 -23 8 -12 328
-11 337 1 3 5 33 15 65 21 33 7 62 16 65 20 8 11 91 32 116 29 29 -3 21 25
-20 68 -19 19 -35 39 -35 43 0 5 -8 17 -17 28 -24 27 -42 56 -50 77 -7 24 -27
16 -31 -12 -2 -12 -11 -25 -20 -29 -9 -3 -23 -11 -29 -18 -14 -14 -99 -34
-143 -34 -17 0 -30 -4 -30 -10 0 -5 -25 -10 -55 -10 -30 0 -55 5 -55 10 0 6
-12 10 -26 10 -40 0 -105 22 -111 37 -3 7 -10 13 -17 13 -30 0 -64 50 -76 113
-14 78 -2 137 37 170 14 12 36 32 50 45 13 12 31 22 39 22 7 0 14 4 14 9 0 9
66 22 140 27 49 3 192 -15 200 -26 3 -3 19 -12 37 -19 17 -7 33 -21 36 -32 9
-34 32 -20 46 27 7 25 20 51 28 59 7 8 20 30 28 49 8 19 19 36 23 38 5 1 12
12 16 24 6 20 2 21 -65 27 -40 3 -75 10 -78 15 -17 28 -282 40 -421 20z"/>
<path d="M5020 1079 c0 -7 7 -17 14 -23 12 -8 16 -49 21 -171 4 -88 11 -161
16 -163 5 -2 9 -23 9 -47 0 -38 -11 -55 -36 -55 -9 0 -84 79 -84 89 0 6 -7 11
-15 11 -9 0 -19 8 -22 18 -4 9 -50 60 -102 113 -154 153 -176 190 -129 208 12
4 -63 8 -175 8 -108 0 -197 -4 -197 -8 0 -5 8 -9 19 -9 28 0 31 -33 31 -311 0
-159 4 -249 10 -249 15 0 13 -117 -2 -123 -10 -4 -10 -6 0 -6 14 -1 17 -61 2
-61 -5 0 -10 -6 -10 -14 0 -8 -6 -16 -12 -19 -30 -10 6 -13 137 -9 92 3 132 7
118 13 -21 8 -23 15 -23 91 0 46 -3 159 -7 252 l-6 168 24 -7 c22 -7 69 -49
69 -62 0 -3 27 -32 60 -65 33 -32 60 -65 60 -73 0 -8 4 -15 8 -15 8 0 84 -72
128 -121 12 -13 45 -46 73 -72 52 -50 63 -79 35 -95 -11 -6 38 -9 135 -8 83 0
151 4 151 9 0 4 -8 7 -18 7 -17 0 -19 14 -25 188 -4 103 -7 276 -7 385 0 166
2 199 15 203 32 13 16 34 -25 34 -22 0 -40 -4 -40 -10 0 -6 -30 -10 -70 -10
-40 0 -70 4 -70 10 0 6 -13 10 -30 10 -16 0 -30 -5 -30 -11z"/>
<path d="M2666 1049 c-33 -5 -62 -13 -65 -17 -3 -5 -23 -12 -43 -16 -21 -4
-43 -12 -50 -19 -7 -7 -32 -21 -55 -32 -24 -11 -45 -28 -48 -37 -4 -9 -15 -20
-25 -23 -10 -3 -22 -15 -25 -26 -4 -10 -10 -19 -15 -19 -5 0 -16 -21 -26 -47
-10 -27 -22 -51 -28 -55 -5 -3 -10 -60 -10 -125 -1 -101 2 -122 17 -137 9 -10
17 -26 17 -37 0 -10 9 -28 20 -39 11 -11 20 -26 20 -33 0 -8 12 -20 26 -27 14
-8 30 -22 35 -32 5 -10 16 -18 24 -18 7 0 20 -6 27 -13 17 -17 93 -47 117 -47
11 0 21 -6 23 -12 3 -9 46 -13 158 -13 112 0 155 4 158 13 2 6 11 12 21 12 26
0 111 31 111 40 0 5 10 12 21 15 31 10 139 117 139 138 0 9 4 17 8 17 5 0 13
21 20 47 23 95 25 147 7 228 -18 79 -22 87 -61 130 -12 13 -24 30 -27 39 -4 9
-13 16 -21 16 -7 0 -21 11 -30 25 -9 14 -23 25 -31 25 -8 0 -18 6 -22 13 -4 8
-29 19 -55 27 -27 7 -48 16 -48 20 0 7 -68 17 -175 24 -27 2 -77 -1 -109 -5z
m213 -196 c3 -6 16 -14 29 -17 59 -19 122 -119 122 -194 -1 -52 -18 -125 -34
-137 -7 -5 -18 -20 -25 -32 -6 -13 -18 -23 -26 -23 -8 0 -15 -6 -15 -14 0 -8
-22 -18 -62 -26 -107 -22 -227 -9 -268 28 -10 9 -25 22 -32 28 -24 21 -43 49
-57 82 -19 44 -10 171 13 187 9 7 16 16 16 21 0 15 63 71 88 78 12 4 22 11 22
16 0 5 8 11 18 14 29 8 204 -1 211 -11z"/>
<path d="M730 1030 c0 -5 -24 -10 -52 -10 -53 0 -129 -16 -138 -29 -3 -4 -27
-15 -55 -26 -27 -10 -58 -27 -69 -37 -11 -10 -23 -18 -27 -18 -10 0 -59 -49
-59 -59 0 -4 -9 -16 -19 -28 -21 -22 -51 -101 -51 -133 0 -11 -4 -20 -10 -20
-5 0 -10 -20 -10 -45 0 -25 5 -45 10 -45 6 0 10 -14 10 -32 0 -40 28 -116 52
-142 10 -11 18 -23 18 -26 0 -10 48 -60 57 -60 4 0 21 -11 36 -24 16 -14 51
-30 78 -37 27 -7 49 -16 49 -19 0 -3 24 -12 53 -20 94 -25 437 -10 457 19 7
11 121 41 153 41 37 0 36 5 -20 66 -13 14 -23 28 -23 33 0 4 -8 16 -17 27 -10
11 -27 35 -37 54 -31 55 -56 66 -56 25 0 -17 -8 -29 -25 -37 -14 -6 -25 -15
-25 -19 0 -4 -17 -9 -37 -12 -21 -2 -67 -10 -103 -17 -102 -19 -228 -1 -268
37 -7 7 -18 13 -24 13 -20 0 -68 63 -74 97 -3 18 -10 33 -15 33 -5 0 -9 14 -9
30 0 17 4 30 9 30 5 0 11 18 15 40 4 25 14 43 26 50 11 6 20 17 20 25 0 7 9
17 20 20 11 3 26 13 34 21 37 36 215 48 352 24 51 -9 104 -44 104 -69 0 -6 5
-11 10 -11 6 0 10 9 10 20 0 11 3 20 8 20 4 0 16 20 27 45 11 25 23 45 27 45
5 0 8 7 8 15 0 8 8 23 18 33 9 10 23 28 30 40 12 22 11 22 -52 22 -35 0 -66 5
-68 10 -4 12 -104 30 -165 30 -24 0 -43 5 -43 10 0 6 -30 10 -70 10 -40 0 -70
-4 -70 -10z"/>
</g>
</svg>
